<svg xmlns="http://www.w3.org/2000/svg" xmlns:xlink="http://www.w3.org/1999/xlink" width="500" zoomAndPan="magnify" viewBox="0 0 375 374.999991" height="500" preserveAspectRatio="xMidYMid meet" version="1.0"><defs><g/><clipPath id="2cbb187267"><path d="M 71.597656 220.375 L 303.347656 220.375 L 303.347656 238.113281 L 71.597656 238.113281 Z M 71.597656 220.375 " clip-rule="nonzero"/></clipPath><clipPath id="e62e73af4e"><path d="M 97 187.113281 L 188 187.113281 L 188 228 L 97 228 Z M 97 187.113281 " clip-rule="nonzero"/></clipPath><clipPath id="7ca2771df4"><path d="M 97 187.113281 L 187 187.113281 L 187 224 L 97 224 Z M 97 187.113281 " clip-rule="nonzero"/></clipPath><clipPath id="b0fc23aae5"><path d="M 187 187.113281 L 278 187.113281 L 278 224 L 187 224 Z M 187 187.113281 " clip-rule="nonzero"/></clipPath><clipPath id="0c4d7b4aff"><path d="M 187 187.113281 L 278 187.113281 L 278 228 L 187 228 Z M 187 187.113281 " clip-rule="nonzero"/></clipPath><clipPath id="9b2aace58a"><path d="M 130.429688 64.648438 L 244.429688 64.648438 L 244.429688 181.648438 L 130.429688 181.648438 Z M 130.429688 64.648438 " clip-rule="nonzero"/></clipPath><clipPath id="968ace1005"><path d="M 146.621094 175 L 228 175 L 228 193.90625 L 146.621094 193.90625 Z M 146.621094 175 " clip-rule="nonzero"/></clipPath><clipPath id="45a64b6fc9"><rect x="0" width="254" y="0" height="36"/></clipPath><clipPath id="4afdf050b3"><rect x="0" width="225" y="0" height="22"/></clipPath></defs><rect x="-37.5" width="450" fill="#ffffff" y="-37.499999" height="449.999989" fill-opacity="1"/><rect x="-37.5" width="450" fill="#f8f8f8" y="-37.499999" height="449.999989" fill-opacity="1"/><path fill="#5e3d0d" d="M 94.132812 218.730469 C 94.164062 218.738281 96.570312 219.339844 96.601562 219.347656 L 94.136719 218.957031 C 91.714844 219.570312 84.203125 221.757812 82.683594 222.140625 L 79.835938 221.933594 C 79.835938 221.933594 94.085938 218.738281 94.132812 218.730469 " fill-opacity="1" fill-rule="nonzero"/><path fill="#5e3d0d" d="M 281.230469 218.730469 C 281.203125 218.738281 278.796875 219.339844 278.761719 219.347656 L 281.226562 218.957031 C 283.648438 219.570312 291.160156 221.757812 292.675781 222.140625 L 295.527344 221.933594 C 295.527344 221.933594 281.273438 218.738281 281.230469 218.730469 " fill-opacity="1" fill-rule="nonzero"/><g clip-path="url(#2cbb187267)"><path fill="#5e3d0d" d="M 197.125 230.835938 C 208.492188 223.253906 222.132812 223.40625 235.0625 227.675781 Z M 139.953125 227.675781 C 153.871094 223.160156 167.160156 223.617188 177.867188 230.828125 Z M 296.617188 222.550781 L 246.320312 226.738281 C 239.578125 224.742188 212.597656 211.300781 194.066406 231.082031 C 194.0625 231.082031 193.214844 231.832031 189.707031 236.867188 C 188.15625 236.867188 186.769531 236.867188 185.292969 236.867188 C 181.785156 231.832031 180.941406 231.085938 180.941406 231.085938 C 169.234375 218.589844 152.273438 217.84375 133.941406 224.929688 C 132.191406 225.609375 130.441406 226.210938 128.691406 226.738281 C 126.046875 226.519531 80.941406 222.765625 78.375 222.550781 L 71.597656 230.878906 C 75.132812 230.964844 177.414062 233.519531 180.945312 233.605469 L 182.664062 238.363281 C 192.226562 238.363281 182.742188 238.363281 192.347656 238.363281 L 194.066406 233.605469 L 303.398438 230.878906 L 296.617188 222.550781 " fill-opacity="1" fill-rule="nonzero"/></g><path fill="#5e3d0d" d="M 187.414062 229.964844 C 174.839844 212.609375 155.25 210.390625 135.039062 216.964844 C 110.195312 225.039062 91.886719 217.621094 80.378906 199.402344 C 94.253906 216.804688 114.460938 219.136719 135.984375 212.136719 C 157.554688 205.125 176.152344 209.957031 187.414062 229.964844 " fill-opacity="1" fill-rule="nonzero"/><path fill="#5e3d0d" d="M 187.414062 234.757812 C 175.929688 218.710938 158.222656 215.65625 139.152344 221.621094 C 121.382812 227.179688 101.691406 227.042969 90.179688 212.617188 C 103.058594 223.429688 118.929688 223.730469 134.878906 218.179688 C 156.996094 210.492188 176.742188 213.960938 187.414062 234.757812 " fill-opacity="1" fill-rule="nonzero"/><path fill="#5e3d0d" d="M 127.394531 210.972656 C 121.15625 210.585938 115.414062 209.101562 109.527344 205.050781 C 107.960938 203.96875 108.507812 203.984375 106.863281 204.382812 C 98.667969 206.171875 90.484375 205.976562 83.371094 201.328125 C 82.527344 200.769531 81.382812 199.976562 80.460938 199.066406 C 82.921875 202.960938 91.984375 210.398438 107.8125 206.03125 C 112.746094 209.515625 119.984375 211.828125 127.394531 210.972656 " fill-opacity="1" fill-rule="nonzero"/><g clip-path="url(#e62e73af4e)"><path fill="#5e3d0d" d="M 187.496094 227.707031 C 178.4375 211.363281 161.550781 204.523438 143.371094 208.085938 C 121.019531 212.464844 105.953125 204.121094 97.910156 187.140625 C 108.089844 203.664062 125.332031 207.804688 144.695312 204.007812 C 164.101562 200.207031 179.851562 209.207031 187.496094 227.707031 " fill-opacity="1" fill-rule="nonzero"/></g><g clip-path="url(#7ca2771df4)"><path fill="#5e3d0d" d="M 151.386719 195.15625 C 145.71875 195.59375 136.28125 195.859375 131.332031 192.816406 C 131.074219 192.65625 130.816406 192.585938 130.507812 192.703125 C 127.769531 193.738281 125.132812 194.421875 122.207031 194.703125 C 113.558594 195.589844 104.089844 192.121094 97.910156 187.140625 C 100.175781 189.382812 104.394531 192.269531 109.136719 194.105469 C 115.902344 196.746094 123.21875 197.046875 130.699219 194.484375 C 132.152344 195.359375 135.175781 196.511719 139.140625 197.027344 C 143.460938 197.597656 147.367188 197.480469 151.542969 197.125 C 174.222656 195.464844 185.808594 212.539062 186.976562 223.816406 C 186.914062 211.988281 175.230469 193.578125 151.386719 195.15625 " fill-opacity="1" fill-rule="nonzero"/></g><path fill="#5e3d0d" d="M 187.414062 229.964844 C 199.988281 212.609375 219.679688 210.390625 239.890625 216.964844 C 264.730469 225.039062 283.042969 217.621094 294.550781 199.402344 C 280.671875 216.804688 260.46875 219.136719 238.945312 212.136719 C 217.375 205.125 198.675781 209.957031 187.414062 229.964844 " fill-opacity="1" fill-rule="nonzero"/><path fill="#5e3d0d" d="M 187.414062 234.757812 C 198.902344 218.710938 216.703125 215.65625 235.773438 221.621094 C 253.546875 227.179688 273.234375 227.042969 284.75 212.617188 C 271.871094 223.429688 256 223.730469 240.050781 218.179688 C 217.929688 210.492188 198.085938 213.960938 187.414062 234.757812 " fill-opacity="1" fill-rule="nonzero"/><path fill="#5e3d0d" d="M 276.277344 205.4375 C 273.808594 205.398438 271.503906 205.050781 269.117188 204.574219 C 265.40625 203.765625 268.359375 203.820312 262.339844 207.003906 C 256.570312 210.054688 252.457031 210.675781 247.699219 210.972656 C 256.320312 211.96875 263.710938 208.527344 267.285156 206.027344 C 281.226562 209.871094 291.105469 204.640625 294.632812 199.066406 C 290.90625 202.730469 284.046875 205.625 276.277344 205.4375 " fill-opacity="1" fill-rule="nonzero"/><g clip-path="url(#b0fc23aae5)"><path fill="#5e3d0d" d="M 248.5 193.988281 C 244.050781 192.839844 244.355469 192.34375 243.59375 192.816406 C 237.277344 196.703125 223.085938 195.105469 222.421875 195.082031 C 200.003906 193.867188 188.015625 211.753906 187.953125 223.816406 C 189.074219 212.980469 199.558594 198.015625 217.96875 197.027344 C 220.808594 196.871094 222.84375 197.082031 224.492188 197.21875 C 229.988281 197.710938 237.34375 197.453125 242.460938 195.347656 C 243.175781 195.054688 243.800781 194.738281 244.226562 194.484375 C 248.242188 195.863281 252.367188 196.546875 257.101562 196.144531 C 265.027344 195.410156 272.683594 191.429688 277.019531 187.140625 C 269.941406 192.84375 259.070312 196.484375 248.5 193.988281 " fill-opacity="1" fill-rule="nonzero"/></g><g clip-path="url(#0c4d7b4aff)"><path fill="#5e3d0d" d="M 187.496094 227.707031 C 196.554688 211.363281 213.375 204.523438 231.558594 208.085938 C 253.90625 212.464844 268.976562 204.121094 277.019531 187.140625 C 266.835938 203.664062 249.597656 207.804688 230.234375 204.007812 C 210.828125 200.207031 195.140625 209.207031 187.496094 227.707031 " fill-opacity="1" fill-rule="nonzero"/></g><g clip-path="url(#9b2aace58a)"><path fill="#f5b828" d="M 187.882812 146.019531 C 187.492188 157.980469 187.527344 158.207031 187.5625 160.785156 C 187.609375 164.046875 187.554688 167.308594 187.574219 170.574219 C 187.578125 170.917969 187.683594 171.476562 187.3125 171.527344 C 186.882812 171.585938 186.894531 171.007812 186.828125 170.679688 C 186.476562 168.9375 186.378906 167.164062 186.351562 165.390625 C 186.25 158.953125 186.175781 152.511719 186.082031 146.070312 C 185.988281 139.347656 185.847656 132.625 186.007812 125.902344 C 186.191406 118.449219 185.964844 110.996094 185.816406 103.542969 C 185.707031 98.171875 185.691406 92.796875 185.554688 87.425781 C 185.394531 81.320312 185.457031 75.21875 185.566406 69.113281 C 185.582031 68.097656 185.683594 67.09375 185.902344 66.101562 C 185.972656 65.777344 186.101562 65.457031 186.246094 65.15625 C 186.390625 64.871094 186.628906 64.65625 186.980469 64.675781 C 187.335938 64.691406 187.515625 64.949219 187.636719 65.25 C 187.898438 65.90625 188.066406 66.585938 188.140625 67.292969 C 188.425781 70.042969 188.289062 72.800781 188.277344 75.554688 C 188.242188 85.007812 188.113281 94.460938 188.171875 103.910156 C 188.207031 109.144531 188.179688 114.375 188.179688 119.609375 C 188.25 131.703125 188.070312 140.292969 187.882812 146.019531 Z M 180.21875 170.707031 C 180.078125 167.273438 179.613281 163.871094 179.257812 160.460938 C 178.8125 156.183594 178.210938 151.917969 177.867188 147.628906 C 177.5 143.085938 177.15625 138.539062 176.558594 134.027344 C 175.429688 125.492188 174.570312 116.929688 173.609375 108.375 C 173.035156 103.289062 172.472656 98.199219 171.769531 93.128906 C 171.519531 91.320312 171.171875 89.515625 170.480469 87.8125 C 170.25 87.242188 169.855469 86.753906 169.132812 86.929688 C 168.457031 87.089844 168.339844 87.652344 168.339844 88.253906 C 168.332031 89.382812 168.433594 90.5 168.601562 91.613281 C 169.320312 96.398438 170.085938 101.175781 170.710938 105.972656 C 172.09375 116.542969 173.394531 127.121094 174.75 137.695312 C 175.367188 142.519531 176.113281 147.332031 176.664062 152.164062 C 177.21875 157.054688 177.796875 161.9375 178.660156 166.785156 C 178.953125 168.429688 179.539062 169.996094 180.023438 171.675781 C 180.355469 171.308594 180.230469 170.992188 180.21875 170.707031 Z M 206.925781 92.960938 C 206.855469 92.511719 206.773438 92.019531 206.207031 91.960938 C 205.671875 91.902344 205.394531 92.304688 205.207031 92.722656 C 204.835938 93.546875 204.601562 94.417969 204.449219 95.308594 C 203.589844 100.269531 202.839844 105.234375 202.34375 110.253906 C 201.507812 118.675781 200.09375 127.027344 198.984375 135.417969 C 198.460938 139.375 197.84375 143.324219 197.40625 147.292969 C 196.800781 152.796875 196.253906 158.308594 195.347656 163.773438 C 194.949219 166.160156 194.464844 168.535156 194.511719 170.96875 C 194.519531 171.351562 194.324219 171.988281 194.847656 172.03125 C 195.316406 172.066406 195.3125 171.414062 195.394531 171.023438 C 196.058594 167.917969 196.507812 164.773438 196.996094 161.632812 C 198.542969 151.746094 200.425781 141.914062 201.742188 131.984375 C 202.917969 123.121094 204.605469 114.332031 205.605469 105.441406 C 205.996094 101.949219 206.792969 98.507812 206.941406 94.714844 C 206.964844 94.308594 207.035156 93.636719 206.925781 92.960938 Z M 174.851562 172.246094 C 173.539062 165.167969 172.136719 158.113281 170.5 151.105469 C 168.246094 141.4375 166.085938 131.753906 163.878906 122.078125 C 163.03125 118.347656 162.09375 114.640625 160.632812 111.09375 C 160.414062 110.5625 160.160156 109.859375 159.417969 110.027344 C 158.667969 110.199219 158.6875 110.941406 158.683594 111.558594 C 158.679688 111.976562 158.734375 112.402344 158.820312 112.8125 C 159.035156 113.832031 159.242188 114.851562 159.519531 115.855469 C 160.945312 121.0625 162.550781 126.222656 163.796875 131.472656 C 166.585938 143.234375 169.753906 154.902344 172.261719 166.730469 C 172.664062 168.628906 173.132812 170.515625 174.085938 172.234375 C 174.269531 172.574219 174.40625 172.957031 174.953125 173.171875 C 174.914062 172.796875 174.902344 172.515625 174.851562 172.246094 Z M 218.019531 119.320312 C 217.984375 118.949219 217.910156 118.570312 217.492188 118.441406 C 217.070312 118.308594 216.8125 118.605469 216.570312 118.886719 C 216.21875 119.296875 215.945312 119.761719 215.789062 120.273438 C 214.71875 123.769531 213.371094 127.175781 212.59375 130.757812 C 211.582031 135.429688 210.558594 140.097656 209.253906 144.695312 C 206.796875 153.382812 205.058594 162.242188 202.863281 170.992188 C 202.6875 171.695312 202.660156 172.433594 202.585938 173.160156 C 202.574219 173.277344 202.644531 173.46875 202.734375 173.519531 C 202.925781 173.628906 203.039062 173.433594 203.117188 173.296875 C 203.246094 173.082031 203.34375 172.847656 203.4375 172.613281 C 204.085938 171.019531 204.46875 169.34375 204.957031 167.703125 C 207.421875 159.375 209.894531 151.046875 212.339844 142.714844 C 214.191406 136.402344 215.464844 129.933594 217.402344 123.644531 C 217.773438 122.433594 217.984375 121.183594 218.023438 120.050781 C 218.023438 119.714844 218.039062 119.515625 218.019531 119.320312 Z M 169.332031 173.800781 C 169.054688 172.742188 168.792969 171.671875 168.441406 170.636719 C 166.082031 163.691406 163.679688 156.757812 161.292969 149.820312 C 157.917969 140.011719 154.300781 130.285156 150.777344 120.523438 C 150.511719 119.785156 150.210938 119.050781 149.75 118.40625 C 149.503906 118.058594 149.191406 117.707031 148.710938 117.847656 C 148.175781 118 148.144531 118.492188 148.128906 118.949219 C 148.125 119.144531 148.144531 119.34375 148.179688 119.535156 C 148.464844 121.113281 148.761719 122.695312 149.371094 124.1875 C 152.480469 131.785156 155.492188 139.425781 158.308594 147.136719 C 159.929688 151.578125 161.898438 155.871094 163.519531 160.308594 C 165.070312 164.558594 166.464844 168.871094 168.417969 172.96875 C 168.675781 173.511719 168.871094 174.089844 169.300781 174.582031 C 169.535156 174.269531 169.390625 174.023438 169.332031 173.800781 Z M 163.191406 176.398438 C 162.085938 174.058594 160.984375 171.71875 159.851562 169.394531 C 157.230469 164.011719 154.453125 158.703125 152.03125 153.222656 C 149.597656 147.71875 147.214844 142.191406 144.363281 136.882812 C 143.910156 136.039062 143.46875 135.191406 142.804688 134.488281 C 142.394531 134.054688 142.039062 133.363281 141.296875 133.738281 C 140.574219 134.101562 140.742188 134.828125 140.84375 135.464844 C 140.886719 135.742188 140.980469 136.011719 141.082031 136.273438 C 141.578125 137.558594 142.148438 138.8125 142.773438 140.042969 C 144.175781 142.796875 145.636719 145.523438 147.089844 148.253906 C 149.304688 152.425781 151.351562 156.6875 153.554688 160.863281 C 156.390625 166.234375 159.277344 171.578125 162.628906 176.65625 C 162.820312 176.949219 162.964844 177.308594 163.40625 177.480469 C 163.566406 177.039062 163.34375 176.71875 163.191406 176.398438 Z M 227.636719 130.371094 C 227.351562 130.1875 227.085938 130.304688 226.847656 130.460938 C 226.042969 130.980469 225.519531 131.753906 225.097656 132.582031 C 223.816406 135.089844 222.726562 137.679688 221.71875 140.308594 C 218.316406 149.179688 214.910156 158.050781 211.519531 166.929688 C 210.578125 169.394531 209.398438 171.773438 208.828125 174.375 C 208.761719 174.664062 208.574219 175.074219 208.925781 175.203125 C 209.253906 175.324219 209.414062 174.902344 209.558594 174.644531 C 210.230469 173.472656 210.761719 172.230469 211.28125 170.984375 C 214.226562 163.957031 217.28125 156.980469 220.394531 150.027344 C 223.050781 144.09375 225.496094 138.082031 227.613281 131.9375 C 227.722656 131.617188 227.796875 131.289062 227.875 131.015625 C 227.886719 130.726562 227.855469 130.507812 227.636719 130.371094 Z M 156.859375 180.816406 C 156.789062 180.238281 156.394531 179.828125 156.082031 179.378906 C 154.265625 176.738281 152.394531 174.132812 150.628906 171.460938 C 146.234375 164.828125 141.902344 158.15625 137.628906 151.445312 C 136.390625 149.503906 134.957031 147.691406 133.585938 145.835938 C 133.1875 145.296875 132.699219 144.820312 132.128906 144.449219 C 131.753906 144.207031 131.339844 144.0625 130.945312 144.34375 C 130.53125 144.636719 130.589844 145.085938 130.734375 145.496094 C 130.863281 145.863281 131.03125 146.226562 131.230469 146.566406 C 131.894531 147.707031 132.597656 148.828125 133.425781 149.859375 C 136.523438 153.726562 139.304688 157.824219 142.054688 161.933594 C 146.027344 167.878906 150.371094 173.539062 154.917969 179.050781 C 155.464844 179.714844 156.082031 180.324219 156.664062 180.957031 C 156.730469 180.910156 156.792969 180.863281 156.859375 180.816406 Z M 218.808594 181.070312 C 221.570312 178.386719 224.285156 175.652344 227.097656 173.023438 C 232.101562 168.355469 236.710938 163.320312 241.179688 158.152344 C 242.097656 157.089844 243.03125 156.03125 243.785156 154.839844 C 244.097656 154.34375 244.488281 153.75 243.925781 153.238281 C 243.34375 152.714844 242.757812 153.125 242.257812 153.507812 C 241.476562 154.113281 240.84375 154.871094 240.199219 155.617188 C 236.777344 159.566406 233.402344 163.5625 229.917969 167.460938 C 227.238281 170.453125 224.421875 173.328125 221.667969 176.253906 C 220.414062 177.589844 219.289062 179.027344 218.382812 180.625 C 218.21875 180.90625 218.003906 181.183594 218.070312 181.5625 C 218.433594 181.558594 218.597656 181.273438 218.808594 181.070312 Z M 214.613281 176.667969 C 215.066406 175.988281 215.46875 175.273438 215.960938 174.625 C 220.230469 168.960938 224.234375 163.113281 228.148438 157.203125 C 230.570312 153.542969 233.003906 149.890625 235.425781 146.234375 C 235.988281 145.386719 236.527344 144.53125 236.785156 143.53125 C 236.898438 143.097656 236.921875 142.671875 236.496094 142.398438 C 236.066406 142.117188 235.667969 142.328125 235.34375 142.617188 C 235.015625 142.914062 234.695312 143.246094 234.445312 143.613281 C 232.992188 145.789062 231.464844 147.914062 230.1875 150.203125 C 227.335938 155.316406 224.160156 160.230469 220.851562 165.058594 C 218.671875 168.238281 216.59375 171.480469 214.730469 174.859375 C 214.3125 175.617188 213.90625 176.378906 213.800781 177.347656 C 214.257812 177.234375 214.433594 176.941406 214.613281 176.667969 Z M 190.449219 170.082031 C 190.683594 167.390625 190.929688 164.703125 191.125 162.011719 C 191.769531 153.148438 192.429688 144.289062 193.011719 135.421875 C 193.53125 127.503906 194.773438 119.664062 195.480469 111.765625 C 195.933594 106.734375 197.015625 101.746094 196.609375 96.652344 C 196.578125 96.253906 196.863281 95.582031 196.199219 95.5625 C 195.621094 95.542969 195.679688 96.210938 195.625 96.628906 C 195.441406 98.023438 195.582031 99.433594 195.441406 100.839844 C 195.191406 103.300781 194.816406 105.746094 194.648438 108.21875 C 194.386719 112.117188 194.066406 116.015625 193.726562 119.90625 C 193.222656 125.648438 192.644531 131.382812 192.164062 137.125 C 191.753906 142 191.421875 146.882812 191.089844 151.761719 C 190.6875 157.625 190.316406 163.488281 189.941406 169.351562 C 189.90625 169.902344 189.867188 170.460938 190.082031 171.144531 C 190.402344 170.746094 190.417969 170.40625 190.449219 170.082031 Z M 184.246094 170.015625 C 184.164062 166.582031 183.753906 163.171875 183.582031 159.746094 C 183.238281 153.035156 182.75 146.332031 182.164062 139.636719 C 181.523438 132.320312 181.125 124.996094 180.84375 117.660156 C 180.566406 110.441406 180.261719 103.222656 178.855469 96.105469 C 178.792969 95.769531 178.863281 95.195312 178.449219 95.230469 C 178.046875 95.261719 178.1875 95.832031 178.171875 96.175781 C 178.019531 99.570312 178.636719 102.910156 179.121094 106.230469 C 179.988281 112.144531 180.433594 118.082031 180.664062 124.035156 C 180.914062 130.5 181.179688 136.960938 181.679688 143.410156 C 182.3125 151.539062 183.054688 159.660156 183.609375 167.796875 C 183.679688 168.839844 183.652344 169.917969 184.246094 170.921875 C 184.246094 170.617188 184.253906 170.316406 184.246094 170.015625 Z M 199.550781 171.242188 C 200.167969 168.070312 200.785156 164.898438 201.394531 161.726562 C 202.578125 155.542969 204.011719 149.410156 205.21875 143.234375 C 206.125 138.601562 206.777344 133.921875 207.539062 129.261719 C 207.875 127.234375 208.542969 125.277344 208.777344 123.234375 C 208.808594 122.972656 209.007812 122.574219 208.6875 122.484375 C 208.316406 122.378906 208.332031 122.84375 208.265625 123.074219 C 207.582031 125.535156 206.867188 127.992188 206.484375 130.53125 C 205.859375 134.726562 205.285156 138.933594 204.550781 143.113281 C 203.355469 149.894531 201.523438 156.546875 200.339844 163.332031 C 199.839844 166.203125 199.230469 169.066406 199.347656 172.027344 C 199.417969 171.765625 199.5 171.507812 199.550781 171.242188 Z M 176.929688 170.648438 C 175.964844 165.457031 175.445312 160.195312 174.605469 154.984375 C 173.300781 146.914062 172.105469 138.824219 170.414062 130.820312 C 169.429688 126.148438 168.296875 121.507812 167.773438 116.746094 C 167.597656 115.125 167.273438 113.523438 166.832031 111.949219 C 166.75 111.65625 166.695312 111.15625 166.25 111.277344 C 165.847656 111.378906 165.992188 111.835938 165.996094 112.160156 C 165.996094 112.21875 166.007812 112.273438 166.019531 112.328125 C 166.796875 116.328125 167.550781 120.332031 168.355469 124.324219 C 168.855469 126.804688 169.835938 129.160156 170.246094 131.664062 C 171.1875 137.433594 172.011719 143.21875 173.066406 148.964844 C 174.148438 154.851562 175.035156 160.769531 175.84375 166.699219 C 176.058594 168.273438 176.339844 169.847656 176.972656 171.316406 C 176.960938 171.09375 176.972656 170.867188 176.929688 170.648438 Z M 171.203125 173.207031 C 171.179688 173.101562 171.160156 172.996094 171.128906 172.894531 C 169.601562 167.546875 167.863281 162.257812 166.503906 156.863281 C 164.550781 149.125 162.617188 141.382812 160.277344 133.746094 C 159.390625 130.847656 158.675781 127.886719 157.441406 125.101562 C 157.347656 124.890625 157.382812 124.480469 157.042969 124.566406 C 156.691406 124.652344 156.820312 125.039062 156.875 125.289062 C 157.011719 125.921875 157.183594 126.546875 157.363281 127.164062 C 159.644531 135.101562 162.464844 142.878906 164.292969 150.957031 C 165.660156 156.984375 167.667969 162.847656 169.417969 168.773438 C 169.871094 170.300781 170.492188 171.777344 171.035156 173.277344 C 171.09375 173.253906 171.148438 173.230469 171.203125 173.207031 Z M 206.0625 172.808594 C 208.617188 165.011719 211.910156 157.476562 214.171875 149.574219 C 215.582031 144.660156 217.613281 139.9375 218.988281 135.007812 C 219.152344 134.429688 219.351562 133.855469 219.214844 133.21875 C 218.8125 133.304688 218.761719 133.605469 218.664062 133.855469 C 217.824219 136 216.964844 138.128906 216.390625 140.375 C 214.691406 147.035156 212.027344 153.375 209.828125 159.867188 C 208.359375 164.199219 206.929688 168.546875 205.953125 173.03125 C 205.988281 172.957031 206.039062 172.886719 206.0625 172.808594 Z M 165.347656 174.101562 C 164.832031 172.707031 164.347656 171.296875 163.773438 169.925781 C 160.835938 162.933594 157.855469 155.960938 155.007812 148.933594 C 153.511719 145.25 152.367188 141.386719 150.035156 138.082031 C 149.875 137.851562 149.800781 137.367188 149.417969 137.558594 C 149.105469 137.710938 149.308594 138.113281 149.378906 138.402344 C 149.617188 139.371094 150.210938 140.179688 150.640625 141.0625 C 155.554688 151.175781 159.699219 161.617188 163.855469 172.054688 C 164.253906 173.058594 164.652344 174.074219 165.378906 175.074219 C 165.585938 174.621094 165.445312 174.359375 165.347656 174.101562 Z M 159.664062 178.003906 C 158.300781 175.519531 156.992188 173 155.542969 170.5625 C 151.574219 163.875 147.273438 157.378906 143.820312 150.386719 C 143.570312 149.886719 143.257812 149.414062 142.859375 149.011719 C 142.6875 148.839844 142.519531 148.53125 142.242188 148.6875 C 141.882812 148.898438 142.164062 149.207031 142.277344 149.417969 C 143.527344 151.773438 144.675781 154.199219 146.089844 156.453125 C 150.175781 162.976562 154.148438 169.566406 158.121094 176.160156 C 158.652344 177.039062 159.238281 177.886719 159.878906 178.878906 C 159.941406 178.425781 159.78125 178.214844 159.664062 178.003906 Z M 219.074219 174.949219 C 223.457031 169.417969 227.558594 163.667969 232.160156 158.308594 C 233.316406 156.964844 234.375 155.542969 235.382812 154.085938 C 235.519531 153.886719 235.777344 153.660156 235.515625 153.429688 C 235.273438 153.222656 235.039062 153.429688 234.863281 153.617188 C 234.632812 153.863281 234.40625 154.117188 234.199219 154.382812 C 230.675781 158.835938 227.117188 163.265625 223.644531 167.761719 C 220.96875 171.230469 218.152344 174.601562 215.96875 178.453125 C 217.070312 177.351562 218.101562 176.179688 219.074219 174.949219 Z M 212.367188 174.257812 C 213.863281 171.519531 215.363281 168.78125 216.851562 166.039062 C 220.066406 160.136719 223.257812 154.222656 226.496094 148.335938 C 227.175781 147.101562 227.796875 145.84375 228.425781 144.589844 C 228.570312 144.300781 228.847656 143.898438 228.5 143.675781 C 228.121094 143.4375 227.941406 143.90625 227.746094 144.15625 C 227.574219 144.378906 227.40625 144.613281 227.292969 144.867188 C 226.320312 147.085938 224.953125 149.097656 223.917969 151.285156 C 222.386719 154.511719 220.75 157.683594 219.0625 160.832031 C 216.917969 164.820312 214.605469 168.71875 212.703125 172.828125 C 212.445312 173.382812 212.160156 173.925781 212.160156 174.59375 C 212.230469 174.480469 212.304688 174.371094 212.367188 174.257812 Z M 212.367188 174.257812 " fill-opacity="1" fill-rule="nonzero"/><path fill="#f5b828" d="M 187.882812 146.019531 C 187.492188 157.980469 187.527344 158.207031 187.5625 160.785156 C 187.609375 164.046875 187.554688 167.308594 187.574219 170.574219 C 187.578125 170.917969 187.683594 171.476562 187.3125 171.527344 C 186.882812 171.585938 186.894531 171.007812 186.828125 170.679688 C 186.476562 168.9375 186.378906 167.164062 186.351562 165.390625 C 186.25 158.953125 186.175781 152.511719 186.082031 146.070312 C 185.988281 139.347656 185.847656 132.625 186.007812 125.902344 C 186.191406 118.449219 185.964844 110.996094 185.816406 103.542969 C 185.707031 98.171875 185.691406 92.796875 185.554688 87.425781 C 185.394531 81.320312 185.457031 75.21875 185.566406 69.113281 C 185.582031 68.097656 185.683594 67.09375 185.902344 66.101562 C 185.972656 65.777344 186.101562 65.457031 186.246094 65.15625 C 186.390625 64.871094 186.628906 64.65625 186.980469 64.675781 C 187.335938 64.691406 187.515625 64.949219 187.636719 65.25 C 187.898438 65.90625 188.066406 66.585938 188.140625 67.292969 C 188.425781 70.042969 188.289062 72.800781 188.277344 75.554688 C 188.242188 85.007812 188.113281 94.460938 188.171875 103.910156 C 188.207031 109.144531 188.179688 114.375 188.179688 119.609375 C 188.25 131.703125 188.070312 140.292969 187.882812 146.019531 Z M 180.21875 170.707031 C 180.078125 167.273438 179.613281 163.871094 179.257812 160.460938 C 178.8125 156.183594 178.210938 151.917969 177.867188 147.628906 C 177.5 143.085938 177.15625 138.539062 176.558594 134.027344 C 175.429688 125.492188 174.570312 116.929688 173.609375 108.375 C 173.035156 103.289062 172.472656 98.199219 171.769531 93.128906 C 171.519531 91.320312 171.171875 89.515625 170.480469 87.8125 C 170.25 87.242188 169.855469 86.753906 169.132812 86.929688 C 168.457031 87.089844 168.339844 87.652344 168.339844 88.253906 C 168.332031 89.382812 168.433594 90.5 168.601562 91.613281 C 169.320312 96.398438 170.085938 101.175781 170.710938 105.972656 C 172.09375 116.542969 173.394531 127.121094 174.75 137.695312 C 175.367188 142.519531 176.113281 147.332031 176.664062 152.164062 C 177.21875 157.054688 177.796875 161.9375 178.660156 166.785156 C 178.953125 168.429688 179.539062 169.996094 180.023438 171.675781 C 180.355469 171.308594 180.230469 170.992188 180.21875 170.707031 Z M 206.925781 92.960938 C 206.855469 92.511719 206.773438 92.019531 206.207031 91.960938 C 205.671875 91.902344 205.394531 92.304688 205.207031 92.722656 C 204.835938 93.546875 204.601562 94.417969 204.449219 95.308594 C 203.589844 100.269531 202.839844 105.234375 202.34375 110.253906 C 201.507812 118.675781 200.09375 127.027344 198.984375 135.417969 C 198.460938 139.375 197.84375 143.324219 197.40625 147.292969 C 196.800781 152.796875 196.253906 158.308594 195.347656 163.773438 C 194.949219 166.160156 194.464844 168.535156 194.511719 170.96875 C 194.519531 171.351562 194.324219 171.988281 194.847656 172.03125 C 195.316406 172.066406 195.3125 171.414062 195.394531 171.023438 C 196.058594 167.917969 196.507812 164.773438 196.996094 161.632812 C 198.542969 151.746094 200.425781 141.914062 201.742188 131.984375 C 202.917969 123.121094 204.605469 114.332031 205.605469 105.441406 C 205.996094 101.949219 206.792969 98.507812 206.941406 94.714844 C 206.964844 94.308594 207.035156 93.636719 206.925781 92.960938 Z M 174.851562 172.246094 C 173.539062 165.167969 172.136719 158.113281 170.5 151.105469 C 168.246094 141.4375 166.085938 131.753906 163.878906 122.078125 C 163.03125 118.347656 162.09375 114.640625 160.632812 111.09375 C 160.414062 110.5625 160.160156 109.859375 159.417969 110.027344 C 158.667969 110.199219 158.6875 110.941406 158.683594 111.558594 C 158.679688 111.976562 158.734375 112.402344 158.820312 112.8125 C 159.035156 113.832031 159.242188 114.851562 159.519531 115.855469 C 160.945312 121.0625 162.550781 126.222656 163.796875 131.472656 C 166.585938 143.234375 169.753906 154.902344 172.261719 166.730469 C 172.664062 168.628906 173.132812 170.515625 174.085938 172.234375 C 174.269531 172.574219 174.40625 172.957031 174.953125 173.171875 C 174.914062 172.796875 174.902344 172.515625 174.851562 172.246094 Z M 218.019531 119.320312 C 217.984375 118.949219 217.910156 118.570312 217.492188 118.441406 C 217.070312 118.308594 216.8125 118.605469 216.570312 118.886719 C 216.21875 119.296875 215.945312 119.761719 215.789062 120.273438 C 214.71875 123.769531 213.371094 127.175781 212.59375 130.757812 C 211.582031 135.429688 210.558594 140.097656 209.253906 144.695312 C 206.796875 153.382812 205.058594 162.242188 202.863281 170.992188 C 202.6875 171.695312 202.660156 172.433594 202.585938 173.160156 C 202.574219 173.277344 202.644531 173.46875 202.734375 173.519531 C 202.925781 173.628906 203.039062 173.433594 203.117188 173.296875 C 203.246094 173.082031 203.34375 172.847656 203.4375 172.613281 C 204.085938 171.019531 204.46875 169.34375 204.957031 167.703125 C 207.421875 159.375 209.894531 151.046875 212.339844 142.714844 C 214.191406 136.402344 215.464844 129.933594 217.402344 123.644531 C 217.773438 122.433594 217.984375 121.183594 218.023438 120.050781 C 218.023438 119.714844 218.039062 119.515625 218.019531 119.320312 Z M 169.332031 173.800781 C 169.054688 172.742188 168.792969 171.671875 168.441406 170.636719 C 166.082031 163.691406 163.679688 156.757812 161.292969 149.820312 C 157.917969 140.011719 154.300781 130.285156 150.777344 120.523438 C 150.511719 119.785156 150.210938 119.050781 149.75 118.40625 C 149.503906 118.058594 149.191406 117.707031 148.710938 117.847656 C 148.175781 118 148.144531 118.492188 148.128906 118.949219 C 148.125 119.144531 148.144531 119.34375 148.179688 119.535156 C 148.464844 121.113281 148.761719 122.695312 149.371094 124.1875 C 152.480469 131.785156 155.492188 139.425781 158.308594 147.136719 C 159.929688 151.578125 161.898438 155.871094 163.519531 160.308594 C 165.070312 164.558594 166.464844 168.871094 168.417969 172.96875 C 168.675781 173.511719 168.871094 174.089844 169.300781 174.582031 C 169.535156 174.269531 169.390625 174.023438 169.332031 173.800781 Z M 163.191406 176.398438 C 162.085938 174.058594 160.984375 171.71875 159.851562 169.394531 C 157.230469 164.011719 154.453125 158.703125 152.03125 153.222656 C 149.597656 147.71875 147.214844 142.191406 144.363281 136.882812 C 143.910156 136.039062 143.46875 135.191406 142.804688 134.488281 C 142.394531 134.054688 142.039062 133.363281 141.296875 133.738281 C 140.574219 134.101562 140.742188 134.828125 140.84375 135.464844 C 140.886719 135.742188 140.980469 136.011719 141.082031 136.273438 C 141.578125 137.558594 142.148438 138.8125 142.773438 140.042969 C 144.175781 142.796875 145.636719 145.523438 147.089844 148.253906 C 149.304688 152.425781 151.351562 156.6875 153.554688 160.863281 C 156.390625 166.234375 159.277344 171.578125 162.628906 176.65625 C 162.820312 176.949219 162.964844 177.308594 163.40625 177.480469 C 163.566406 177.039062 163.34375 176.71875 163.191406 176.398438 Z M 227.636719 130.371094 C 227.351562 130.1875 227.085938 130.304688 226.847656 130.460938 C 226.042969 130.980469 225.519531 131.753906 225.097656 132.582031 C 223.816406 135.089844 222.726562 137.679688 221.71875 140.308594 C 218.316406 149.179688 214.910156 158.050781 211.519531 166.929688 C 210.578125 169.394531 209.398438 171.773438 208.828125 174.375 C 208.761719 174.664062 208.574219 175.074219 208.925781 175.203125 C 209.253906 175.324219 209.414062 174.902344 209.558594 174.644531 C 210.230469 173.472656 210.761719 172.230469 211.28125 170.984375 C 214.226562 163.957031 217.28125 156.980469 220.394531 150.027344 C 223.050781 144.09375 225.496094 138.082031 227.613281 131.9375 C 227.722656 131.617188 227.796875 131.289062 227.875 131.015625 C 227.886719 130.726562 227.855469 130.507812 227.636719 130.371094 Z M 156.859375 180.816406 C 156.789062 180.238281 156.394531 179.828125 156.082031 179.378906 C 154.265625 176.738281 152.394531 174.132812 150.628906 171.460938 C 146.234375 164.828125 141.902344 158.15625 137.628906 151.445312 C 136.390625 149.503906 134.957031 147.691406 133.585938 145.835938 C 133.1875 145.296875 132.699219 144.820312 132.128906 144.449219 C 131.753906 144.207031 131.339844 144.0625 130.945312 144.34375 C 130.53125 144.636719 130.589844 145.085938 130.734375 145.496094 C 130.863281 145.863281 131.03125 146.226562 131.230469 146.566406 C 131.894531 147.707031 132.597656 148.828125 133.425781 149.859375 C 136.523438 153.726562 139.304688 157.824219 142.054688 161.933594 C 146.027344 167.878906 150.371094 173.539062 154.917969 179.050781 C 155.464844 179.714844 156.082031 180.324219 156.664062 180.957031 C 156.730469 180.910156 156.792969 180.863281 156.859375 180.816406 Z M 218.808594 181.070312 C 221.570312 178.386719 224.285156 175.652344 227.097656 173.023438 C 232.101562 168.355469 236.710938 163.320312 241.179688 158.152344 C 242.097656 157.089844 243.03125 156.03125 243.785156 154.839844 C 244.097656 154.34375 244.488281 153.75 243.925781 153.238281 C 243.34375 152.714844 242.757812 153.125 242.257812 153.507812 C 241.476562 154.113281 240.84375 154.871094 240.199219 155.617188 C 236.777344 159.566406 233.402344 163.5625 229.917969 167.460938 C 227.238281 170.453125 224.421875 173.328125 221.667969 176.253906 C 220.414062 177.589844 219.289062 179.027344 218.382812 180.625 C 218.21875 180.90625 218.003906 181.183594 218.070312 181.5625 C 218.433594 181.558594 218.597656 181.273438 218.808594 181.070312 Z M 214.613281 176.667969 C 215.066406 175.988281 215.46875 175.273438 215.960938 174.625 C 220.230469 168.960938 224.234375 163.113281 228.148438 157.203125 C 230.570312 153.542969 233.003906 149.890625 235.425781 146.234375 C 235.988281 145.386719 236.527344 144.53125 236.785156 143.53125 C 236.898438 143.097656 236.921875 142.671875 236.496094 142.398438 C 236.066406 142.117188 235.667969 142.328125 235.34375 142.617188 C 235.015625 142.914062 234.695312 143.246094 234.445312 143.613281 C 232.992188 145.789062 231.464844 147.914062 230.1875 150.203125 C 227.335938 155.316406 224.160156 160.230469 220.851562 165.058594 C 218.671875 168.238281 216.59375 171.480469 214.730469 174.859375 C 214.3125 175.617188 213.90625 176.378906 213.800781 177.347656 C 214.257812 177.234375 214.433594 176.941406 214.613281 176.667969 Z M 190.449219 170.082031 C 190.683594 167.390625 190.929688 164.703125 191.125 162.011719 C 191.769531 153.148438 192.429688 144.289062 193.011719 135.421875 C 193.53125 127.503906 194.773438 119.664062 195.480469 111.765625 C 195.933594 106.734375 197.015625 101.746094 196.609375 96.652344 C 196.578125 96.253906 196.863281 95.582031 196.199219 95.5625 C 195.621094 95.542969 195.679688 96.210938 195.625 96.628906 C 195.441406 98.023438 195.582031 99.433594 195.441406 100.839844 C 195.191406 103.300781 194.816406 105.746094 194.648438 108.21875 C 194.386719 112.117188 194.066406 116.015625 193.726562 119.90625 C 193.222656 125.648438 192.644531 131.382812 192.164062 137.125 C 191.753906 142 191.421875 146.882812 191.089844 151.761719 C 190.6875 157.625 190.316406 163.488281 189.941406 169.351562 C 189.90625 169.902344 189.867188 170.460938 190.082031 171.144531 C 190.402344 170.746094 190.417969 170.40625 190.449219 170.082031 Z M 184.246094 170.015625 C 184.164062 166.582031 183.753906 163.171875 183.582031 159.746094 C 183.238281 153.035156 182.75 146.332031 182.164062 139.636719 C 181.523438 132.320312 181.125 124.996094 180.84375 117.660156 C 180.566406 110.441406 180.261719 103.222656 178.855469 96.105469 C 178.792969 95.769531 178.863281 95.195312 178.449219 95.230469 C 178.046875 95.261719 178.1875 95.832031 178.171875 96.175781 C 178.019531 99.570312 178.636719 102.910156 179.121094 106.230469 C 179.988281 112.144531 180.433594 118.082031 180.664062 124.035156 C 180.914062 130.5 181.179688 136.960938 181.679688 143.410156 C 182.3125 151.539062 183.054688 159.660156 183.609375 167.796875 C 183.679688 168.839844 183.652344 169.917969 184.246094 170.921875 C 184.246094 170.617188 184.253906 170.316406 184.246094 170.015625 Z M 199.550781 171.242188 C 200.167969 168.070312 200.785156 164.898438 201.394531 161.726562 C 202.578125 155.542969 204.011719 149.410156 205.21875 143.234375 C 206.125 138.601562 206.777344 133.921875 207.539062 129.261719 C 207.875 127.234375 208.542969 125.277344 208.777344 123.234375 C 208.808594 122.972656 209.007812 122.574219 208.6875 122.484375 C 208.316406 122.378906 208.332031 122.84375 208.265625 123.074219 C 207.582031 125.535156 206.867188 127.992188 206.484375 130.53125 C 205.859375 134.726562 205.285156 138.933594 204.550781 143.113281 C 203.355469 149.894531 201.523438 156.546875 200.339844 163.332031 C 199.839844 166.203125 199.230469 169.066406 199.347656 172.027344 C 199.417969 171.765625 199.5 171.507812 199.550781 171.242188 Z M 176.929688 170.648438 C 175.964844 165.457031 175.445312 160.195312 174.605469 154.984375 C 173.300781 146.914062 172.105469 138.824219 170.414062 130.820312 C 169.429688 126.148438 168.296875 121.507812 167.773438 116.746094 C 167.597656 115.125 167.273438 113.523438 166.832031 111.949219 C 166.75 111.65625 166.695312 111.15625 166.25 111.277344 C 165.847656 111.378906 165.992188 111.835938 165.996094 112.160156 C 165.996094 112.21875 166.007812 112.273438 166.019531 112.328125 C 166.796875 116.328125 167.550781 120.332031 168.355469 124.324219 C 168.855469 126.804688 169.835938 129.160156 170.246094 131.664062 C 171.1875 137.433594 172.011719 143.21875 173.066406 148.964844 C 174.148438 154.851562 175.035156 160.769531 175.84375 166.699219 C 176.058594 168.273438 176.339844 169.847656 176.972656 171.316406 C 176.960938 171.09375 176.972656 170.867188 176.929688 170.648438 Z M 171.203125 173.207031 C 171.179688 173.101562 171.160156 172.996094 171.128906 172.894531 C 169.601562 167.546875 167.863281 162.257812 166.503906 156.863281 C 164.550781 149.125 162.617188 141.382812 160.277344 133.746094 C 159.390625 130.847656 158.675781 127.886719 157.441406 125.101562 C 157.347656 124.890625 157.382812 124.480469 157.042969 124.566406 C 156.691406 124.652344 156.820312 125.039062 156.875 125.289062 C 157.011719 125.921875 157.183594 126.546875 157.363281 127.164062 C 159.644531 135.101562 162.464844 142.878906 164.292969 150.957031 C 165.660156 156.984375 167.667969 162.847656 169.417969 168.773438 C 169.871094 170.300781 170.492188 171.777344 171.035156 173.277344 C 171.09375 173.253906 171.148438 173.230469 171.203125 173.207031 Z M 206.0625 172.808594 C 208.617188 165.011719 211.910156 157.476562 214.171875 149.574219 C 215.582031 144.660156 217.613281 139.9375 218.988281 135.007812 C 219.152344 134.429688 219.351562 133.855469 219.214844 133.21875 C 218.8125 133.304688 218.761719 133.605469 218.664062 133.855469 C 217.824219 136 216.964844 138.128906 216.390625 140.375 C 214.691406 147.035156 212.027344 153.375 209.828125 159.867188 C 208.359375 164.199219 206.929688 168.546875 205.953125 173.03125 C 205.988281 172.957031 206.039062 172.886719 206.0625 172.808594 Z M 165.347656 174.101562 C 164.832031 172.707031 164.347656 171.296875 163.773438 169.925781 C 160.835938 162.933594 157.855469 155.960938 155.007812 148.933594 C 153.511719 145.25 152.367188 141.386719 150.035156 138.082031 C 149.875 137.851562 149.800781 137.367188 149.417969 137.558594 C 149.105469 137.710938 149.308594 138.113281 149.378906 138.402344 C 149.617188 139.371094 150.210938 140.179688 150.640625 141.0625 C 155.554688 151.175781 159.699219 161.617188 163.855469 172.054688 C 164.253906 173.058594 164.652344 174.074219 165.378906 175.074219 C 165.585938 174.621094 165.445312 174.359375 165.347656 174.101562 Z M 159.664062 178.003906 C 158.300781 175.519531 156.992188 173 155.542969 170.5625 C 151.574219 163.875 147.273438 157.378906 143.820312 150.386719 C 143.570312 149.886719 143.257812 149.414062 142.859375 149.011719 C 142.6875 148.839844 142.519531 148.53125 142.242188 148.6875 C 141.882812 148.898438 142.164062 149.207031 142.277344 149.417969 C 143.527344 151.773438 144.675781 154.199219 146.089844 156.453125 C 150.175781 162.976562 154.148438 169.566406 158.121094 176.160156 C 158.652344 177.039062 159.238281 177.886719 159.878906 178.878906 C 159.941406 178.425781 159.78125 178.214844 159.664062 178.003906 Z M 219.074219 174.949219 C 223.457031 169.417969 227.558594 163.667969 232.160156 158.308594 C 233.316406 156.964844 234.375 155.542969 235.382812 154.085938 C 235.519531 153.886719 235.777344 153.660156 235.515625 153.429688 C 235.273438 153.222656 235.039062 153.429688 234.863281 153.617188 C 234.632812 153.863281 234.40625 154.117188 234.199219 154.382812 C 230.675781 158.835938 227.117188 163.265625 223.644531 167.761719 C 220.96875 171.230469 218.152344 174.601562 215.96875 178.453125 C 217.070312 177.351562 218.101562 176.179688 219.074219 174.949219 Z M 212.367188 174.257812 C 213.863281 171.519531 215.363281 168.78125 216.851562 166.039062 C 220.066406 160.136719 223.257812 154.222656 226.496094 148.335938 C 227.175781 147.101562 227.796875 145.84375 228.425781 144.589844 C 228.570312 144.300781 228.847656 143.898438 228.5 143.675781 C 228.121094 143.4375 227.941406 143.90625 227.746094 144.15625 C 227.574219 144.378906 227.40625 144.613281 227.292969 144.867188 C 226.320312 147.085938 224.953125 149.097656 223.917969 151.285156 C 222.386719 154.511719 220.75 157.683594 219.0625 160.832031 C 216.917969 164.820312 214.605469 168.71875 212.703125 172.828125 C 212.445312 173.382812 212.160156 173.925781 212.160156 174.59375 C 212.230469 174.480469 212.304688 174.371094 212.367188 174.257812 Z M 212.367188 174.257812 " fill-opacity="1" fill-rule="nonzero"/></g><g clip-path="url(#968ace1005)"><path fill="#f5b828" d="M 227.964844 193.894531 C 222.328125 188.9375 216.011719 185.097656 209.015625 182.378906 C 205.578125 181.058594 202.046875 180.0625 198.425781 179.390625 C 194.800781 178.71875 191.148438 178.382812 187.464844 178.382812 C 183.78125 178.382812 180.125 178.71875 176.503906 179.390625 C 172.882812 180.0625 169.351562 181.058594 165.910156 182.378906 C 158.921875 185.109375 152.605469 188.945312 146.964844 193.894531 C 152.078125 188.148438 158.15625 183.730469 165.199219 180.644531 C 168.710938 179.101562 172.34375 177.9375 176.097656 177.148438 C 179.851562 176.359375 183.648438 175.96875 187.480469 175.96875 C 191.316406 175.96875 195.113281 176.359375 198.867188 177.148438 C 202.621094 177.9375 206.253906 179.101562 209.765625 180.644531 C 216.796875 183.734375 222.863281 188.152344 227.964844 193.894531 Z M 227.964844 193.894531 " fill-opacity="1" fill-rule="nonzero"/></g><g transform="matrix(1, 0, 0, 1, 60, 244)"><g clip-path="url(#45a64b6fc9)"><g fill="#b4761a" fill-opacity="1"><g transform="translate(1.828034, 27.595685)"><g><path d="M 7.546875 -18.390625 C 7.546875 -17.640625 7.832031 -17.039062 8.40625 -16.59375 C 8.988281 -16.144531 9.742188 -15.753906 10.671875 -15.421875 C 11.609375 -15.097656 12.59375 -14.753906 13.625 -14.390625 C 14.664062 -14.035156 15.648438 -13.570312 16.578125 -13 C 17.515625 -12.4375 18.273438 -11.675781 18.859375 -10.71875 C 19.441406 -9.757812 19.734375 -8.519531 19.734375 -7 C 19.734375 -5.445312 19.453125 -4.117188 18.890625 -3.015625 C 18.335938 -1.921875 17.414062 -1.082031 16.125 -0.5 C 14.832031 0.0703125 13.097656 0.359375 10.921875 0.359375 C 8.835938 0.359375 7.140625 0.0195312 5.828125 -0.65625 C 4.523438 -1.332031 3.550781 -2.21875 2.90625 -3.3125 C 2.269531 -4.414062 1.90625 -5.582031 1.8125 -6.8125 C 1.789062 -7.007812 1.851562 -7.1875 2 -7.34375 C 2.144531 -7.5 2.320312 -7.578125 2.53125 -7.578125 L 6.8125 -7.578125 C 7.25 -7.578125 7.476562 -7.359375 7.5 -6.921875 C 7.550781 -6.492188 7.679688 -6.007812 7.890625 -5.46875 C 8.097656 -4.9375 8.4375 -4.472656 8.90625 -4.078125 C 9.375 -3.679688 10.019531 -3.484375 10.84375 -3.484375 C 11.8125 -3.484375 12.519531 -3.644531 12.96875 -3.96875 C 13.414062 -4.289062 13.703125 -4.722656 13.828125 -5.265625 C 13.960938 -5.816406 14.03125 -6.394531 14.03125 -7 C 14.03125 -7.769531 13.734375 -8.382812 13.140625 -8.84375 C 12.546875 -9.300781 11.785156 -9.691406 10.859375 -10.015625 C 9.929688 -10.347656 8.945312 -10.695312 7.90625 -11.0625 C 6.863281 -11.425781 5.882812 -11.890625 4.96875 -12.453125 C 4.050781 -13.023438 3.296875 -13.78125 2.703125 -14.71875 C 2.109375 -15.664062 1.8125 -16.890625 1.8125 -18.390625 C 1.8125 -19.929688 2.09375 -21.253906 2.65625 -22.359375 C 3.226562 -23.460938 4.15625 -24.300781 5.4375 -24.875 C 6.71875 -25.457031 8.457031 -25.75 10.65625 -25.75 C 12.71875 -25.75 14.375 -25.410156 15.625 -24.734375 C 16.882812 -24.054688 17.816406 -23.164062 18.421875 -22.0625 C 19.023438 -20.96875 19.375 -19.800781 19.46875 -18.5625 C 19.46875 -18.375 19.398438 -18.203125 19.265625 -18.046875 C 19.140625 -17.890625 18.96875 -17.8125 18.75 -17.8125 L 14.46875 -17.8125 C 14.03125 -17.8125 13.789062 -18.023438 13.75 -18.453125 C 13.71875 -18.890625 13.625 -19.375 13.46875 -19.90625 C 13.3125 -20.4375 13.019531 -20.898438 12.59375 -21.296875 C 12.175781 -21.703125 11.554688 -21.90625 10.734375 -21.90625 C 9.765625 -21.90625 9.050781 -21.738281 8.59375 -21.40625 C 8.132812 -21.082031 7.84375 -20.648438 7.71875 -20.109375 C 7.601562 -19.566406 7.546875 -18.992188 7.546875 -18.390625 Z M 7.546875 -18.390625 "/></g></g></g><g fill="#b4761a" fill-opacity="1"><g transform="translate(23.404025, 27.595685)"><g><path d="M 18.78125 -25.390625 C 18.976562 -25.390625 19.148438 -25.316406 19.296875 -25.171875 C 19.441406 -25.023438 19.5 -24.851562 19.46875 -24.65625 C 19.445312 -23.863281 19.410156 -22.460938 19.359375 -20.453125 C 19.316406 -18.441406 19.296875 -15.851562 19.296875 -12.6875 C 19.296875 -9.550781 19.316406 -6.972656 19.359375 -4.953125 C 19.410156 -2.929688 19.445312 -1.519531 19.46875 -0.71875 C 19.5 -0.53125 19.441406 -0.363281 19.296875 -0.21875 C 19.148438 -0.0703125 18.976562 0 18.78125 0 L 14.546875 0 C 14.347656 0 14.175781 -0.0703125 14.03125 -0.21875 C 13.882812 -0.363281 13.8125 -0.53125 13.8125 -0.71875 C 13.84375 -1.394531 13.875 -2.519531 13.90625 -4.09375 C 13.945312 -5.664062 13.976562 -7.648438 14 -10.046875 C 14 -10.234375 13.925781 -10.398438 13.78125 -10.546875 C 13.632812 -10.691406 13.460938 -10.765625 13.265625 -10.765625 L 8.015625 -10.765625 C 7.816406 -10.765625 7.644531 -10.691406 7.5 -10.546875 C 7.363281 -10.398438 7.296875 -10.234375 7.296875 -10.046875 C 7.316406 -7.648438 7.34375 -5.664062 7.375 -4.09375 C 7.414062 -2.519531 7.445312 -1.394531 7.46875 -0.71875 C 7.46875 -0.53125 7.398438 -0.363281 7.265625 -0.21875 C 7.140625 -0.0703125 6.96875 0 6.75 0 L 2.53125 0 C 2.320312 0 2.148438 -0.0703125 2.015625 -0.21875 C 1.878906 -0.363281 1.8125 -0.53125 1.8125 -0.71875 C 1.832031 -1.519531 1.867188 -2.929688 1.921875 -4.953125 C 1.972656 -6.972656 2 -9.550781 2 -12.6875 C 2 -15.851562 1.972656 -18.441406 1.921875 -20.453125 C 1.867188 -22.460938 1.832031 -23.863281 1.8125 -24.65625 C 1.8125 -24.851562 1.878906 -25.023438 2.015625 -25.171875 C 2.148438 -25.316406 2.320312 -25.390625 2.53125 -25.390625 L 6.75 -25.390625 C 6.96875 -25.390625 7.140625 -25.316406 7.265625 -25.171875 C 7.398438 -25.023438 7.46875 -24.851562 7.46875 -24.65625 C 7.445312 -23.976562 7.414062 -22.851562 7.375 -21.28125 C 7.34375 -19.71875 7.316406 -17.738281 7.296875 -15.34375 C 7.296875 -15.144531 7.363281 -14.972656 7.5 -14.828125 C 7.644531 -14.679688 7.816406 -14.609375 8.015625 -14.609375 L 13.265625 -14.609375 C 13.460938 -14.609375 13.632812 -14.679688 13.78125 -14.828125 C 13.925781 -14.972656 14 -15.144531 14 -15.34375 C 13.976562 -17.738281 13.945312 -19.71875 13.90625 -21.28125 C 13.875 -22.851562 13.84375 -23.976562 13.8125 -24.65625 C 13.8125 -24.851562 13.882812 -25.023438 14.03125 -25.171875 C 14.175781 -25.316406 14.347656 -25.390625 14.546875 -25.390625 Z M 18.78125 -25.390625 "/></g></g></g><g fill="#b4761a" fill-opacity="1"><g transform="translate(44.726182, 27.595685)"><g><path d="M 18.640625 0 L 14.03125 0 C 13.84375 0 13.675781 -0.0703125 13.53125 -0.21875 C 13.382812 -0.363281 13.3125 -0.53125 13.3125 -0.71875 L 13.3125 -6.3125 C 13.3125 -6.863281 13.222656 -7.40625 13.046875 -7.9375 C 12.878906 -8.46875 12.570312 -8.910156 12.125 -9.265625 C 11.675781 -9.617188 11.054688 -9.796875 10.265625 -9.796875 L 8.015625 -9.796875 C 7.816406 -9.796875 7.644531 -9.722656 7.5 -9.578125 C 7.363281 -9.429688 7.304688 -9.257812 7.328125 -9.0625 C 7.328125 -6.9375 7.34375 -5.171875 7.375 -3.765625 C 7.414062 -2.367188 7.445312 -1.351562 7.46875 -0.71875 C 7.46875 -0.53125 7.398438 -0.363281 7.265625 -0.21875 C 7.140625 -0.0703125 6.96875 0 6.75 0 L 2.53125 0 C 2.320312 0 2.148438 -0.0703125 2.015625 -0.21875 C 1.878906 -0.363281 1.8125 -0.53125 1.8125 -0.71875 C 1.832031 -1.519531 1.867188 -2.929688 1.921875 -4.953125 C 1.972656 -6.972656 2 -9.550781 2 -12.6875 C 2 -15.851562 1.972656 -18.441406 1.921875 -20.453125 C 1.867188 -22.460938 1.832031 -23.863281 1.8125 -24.65625 C 1.8125 -24.851562 1.878906 -25.023438 2.015625 -25.171875 C 2.148438 -25.316406 2.320312 -25.390625 2.53125 -25.390625 L 10.40625 -25.390625 C 11.59375 -25.390625 12.71875 -25.28125 13.78125 -25.0625 C 14.84375 -24.84375 15.785156 -24.453125 16.609375 -23.890625 C 17.429688 -23.335938 18.078125 -22.566406 18.546875 -21.578125 C 19.015625 -20.585938 19.25 -19.316406 19.25 -17.765625 C 19.25 -16.335938 18.925781 -15.160156 18.28125 -14.234375 C 17.644531 -13.304688 16.820312 -12.578125 15.8125 -12.046875 C 15.71875 -11.992188 15.671875 -11.90625 15.671875 -11.78125 C 15.671875 -11.664062 15.726562 -11.570312 15.84375 -11.5 C 16.757812 -11.0625 17.519531 -10.425781 18.125 -9.59375 C 18.738281 -8.757812 19.046875 -7.664062 19.046875 -6.3125 C 19.046875 -5.007812 19.078125 -3.890625 19.140625 -2.953125 C 19.210938 -2.023438 19.285156 -1.304688 19.359375 -0.796875 C 19.390625 -0.578125 19.332031 -0.390625 19.1875 -0.234375 C 19.039062 -0.078125 18.859375 0 18.640625 0 Z M 10.484375 -21.546875 L 8.09375 -21.546875 C 7.894531 -21.546875 7.722656 -21.476562 7.578125 -21.34375 C 7.429688 -21.207031 7.359375 -21.046875 7.359375 -20.859375 C 7.359375 -19.984375 7.347656 -19.003906 7.328125 -17.921875 C 7.304688 -16.847656 7.296875 -15.660156 7.296875 -14.359375 C 7.296875 -14.140625 7.363281 -13.960938 7.5 -13.828125 C 7.644531 -13.703125 7.816406 -13.640625 8.015625 -13.640625 L 10.484375 -13.640625 C 11.273438 -13.640625 11.894531 -13.867188 12.34375 -14.328125 C 12.789062 -14.785156 13.097656 -15.332031 13.265625 -15.96875 C 13.441406 -16.613281 13.53125 -17.210938 13.53125 -17.765625 C 13.53125 -18.734375 13.351562 -19.488281 13 -20.03125 C 12.644531 -20.582031 12.234375 -20.972656 11.765625 -21.203125 C 11.296875 -21.429688 10.867188 -21.546875 10.484375 -21.546875 Z M 10.484375 -21.546875 "/></g></g></g><g fill="#b4761a" fill-opacity="1"><g transform="translate(65.903295, 27.595685)"><g><path d="M 17.375 0 C 16.957031 0 16.710938 -0.191406 16.640625 -0.578125 C 16.597656 -0.921875 16.515625 -1.40625 16.390625 -2.03125 C 16.265625 -2.65625 16.117188 -3.429688 15.953125 -4.359375 C 15.878906 -4.742188 15.648438 -4.9375 15.265625 -4.9375 L 8.703125 -4.9375 C 8.316406 -4.9375 8.078125 -4.742188 7.984375 -4.359375 C 7.804688 -3.429688 7.660156 -2.65625 7.546875 -2.03125 C 7.441406 -1.40625 7.359375 -0.921875 7.296875 -0.578125 C 7.242188 -0.191406 7.007812 0 6.59375 0 L 2.359375 0 C 2.117188 0 1.925781 -0.0859375 1.78125 -0.265625 C 1.632812 -0.453125 1.597656 -0.65625 1.671875 -0.875 C 1.859375 -1.71875 2.179688 -3.132812 2.640625 -5.125 C 3.109375 -7.125 3.664062 -9.644531 4.3125 -12.6875 C 5.019531 -15.957031 5.566406 -18.613281 5.953125 -20.65625 C 6.335938 -22.695312 6.585938 -24.082031 6.703125 -24.8125 C 6.773438 -25.195312 7.003906 -25.390625 7.390625 -25.390625 L 16.53125 -25.390625 C 16.945312 -25.390625 17.191406 -25.195312 17.265625 -24.8125 C 17.378906 -24.082031 17.628906 -22.695312 18.015625 -20.65625 C 18.410156 -18.613281 18.945312 -15.957031 19.625 -12.6875 C 20.269531 -9.644531 20.820312 -7.125 21.28125 -5.125 C 21.75 -3.132812 22.085938 -1.71875 22.296875 -0.875 C 22.347656 -0.65625 22.300781 -0.453125 22.15625 -0.265625 C 22.007812 -0.0859375 21.828125 0 21.609375 0 Z M 9.75 -8.78125 L 14.21875 -8.78125 C 14.4375 -8.78125 14.617188 -8.863281 14.765625 -9.03125 C 14.910156 -9.195312 14.957031 -9.390625 14.90625 -9.609375 C 14.8125 -10.085938 14.707031 -10.585938 14.59375 -11.109375 C 14.488281 -11.628906 14.375 -12.15625 14.25 -12.6875 C 13.882812 -14.40625 13.550781 -15.957031 13.25 -17.34375 C 12.945312 -18.738281 12.675781 -19.945312 12.4375 -20.96875 C 12.382812 -21.207031 12.234375 -21.328125 11.984375 -21.328125 C 11.734375 -21.328125 11.570312 -21.207031 11.5 -20.96875 C 11.28125 -19.945312 11.015625 -18.738281 10.703125 -17.34375 C 10.390625 -15.957031 10.050781 -14.40625 9.6875 -12.6875 C 9.5625 -12.15625 9.441406 -11.628906 9.328125 -11.109375 C 9.222656 -10.585938 9.125 -10.085938 9.03125 -9.609375 C 8.976562 -9.390625 9.023438 -9.195312 9.171875 -9.03125 C 9.316406 -8.863281 9.507812 -8.78125 9.75 -8.78125 Z M 9.75 -8.78125 "/></g></g></g><g fill="#b4761a" fill-opacity="1"><g transform="translate(89.872588, 27.595685)"><g><path d="M 19.46875 -17.4375 C 19.46875 -16.71875 19.4375 -16.03125 19.375 -15.375 C 19.320312 -14.71875 19.296875 -13.800781 19.296875 -12.625 C 19.296875 -11.800781 19.3125 -11.109375 19.34375 -10.546875 C 19.382812 -9.992188 19.414062 -9.488281 19.4375 -9.03125 C 19.457031 -8.570312 19.46875 -8.085938 19.46875 -7.578125 C 19.46875 -6.035156 19.179688 -4.703125 18.609375 -3.578125 C 18.046875 -2.453125 17.125 -1.570312 15.84375 -0.9375 C 14.5625 -0.3125 12.820312 0 10.625 0 L 2.53125 0 C 2.320312 0 2.148438 -0.0703125 2.015625 -0.21875 C 1.878906 -0.363281 1.8125 -0.53125 1.8125 -0.71875 C 1.832031 -1.519531 1.867188 -2.929688 1.921875 -4.953125 C 1.972656 -6.972656 2 -9.550781 2 -12.6875 C 2 -15.851562 1.972656 -18.441406 1.921875 -20.453125 C 1.867188 -22.460938 1.832031 -23.863281 1.8125 -24.65625 C 1.8125 -24.851562 1.878906 -25.023438 2.015625 -25.171875 C 2.148438 -25.316406 2.320312 -25.390625 2.53125 -25.390625 L 10.625 -25.390625 C 12.800781 -25.390625 14.53125 -25.015625 15.8125 -24.265625 C 17.09375 -23.515625 18.007812 -22.550781 18.5625 -21.375 C 19.125 -20.207031 19.425781 -18.96875 19.46875 -17.65625 C 19.46875 -17.613281 19.46875 -17.554688 19.46875 -17.484375 C 19.46875 -17.453125 19.46875 -17.4375 19.46875 -17.4375 Z M 10.546875 -3.84375 C 11.515625 -3.84375 12.226562 -4.03125 12.6875 -4.40625 C 13.144531 -4.78125 13.4375 -5.25 13.5625 -5.8125 C 13.6875 -6.382812 13.75 -6.972656 13.75 -7.578125 L 13.75 -17.4375 C 13.75 -17.632812 13.726562 -17.957031 13.6875 -18.40625 C 13.65625 -18.851562 13.546875 -19.316406 13.359375 -19.796875 C 13.179688 -20.285156 12.878906 -20.695312 12.453125 -21.03125 C 12.035156 -21.375 11.453125 -21.546875 10.703125 -21.546875 L 8.09375 -21.546875 C 7.894531 -21.546875 7.722656 -21.476562 7.578125 -21.34375 C 7.429688 -21.207031 7.359375 -21.046875 7.359375 -20.859375 C 7.335938 -19.816406 7.320312 -18.617188 7.3125 -17.265625 C 7.300781 -15.910156 7.296875 -14.382812 7.296875 -12.6875 C 7.296875 -11.019531 7.300781 -9.503906 7.3125 -8.140625 C 7.320312 -6.773438 7.335938 -5.570312 7.359375 -4.53125 C 7.359375 -4.34375 7.429688 -4.179688 7.578125 -4.046875 C 7.722656 -3.910156 7.894531 -3.84375 8.09375 -3.84375 Z M 10.546875 -3.84375 "/></g></g></g><g fill="#b4761a" fill-opacity="1"><g transform="translate(111.158478, 27.595685)"><g><path d="M 18.78125 -25.390625 C 18.976562 -25.390625 19.148438 -25.316406 19.296875 -25.171875 C 19.441406 -25.023438 19.5 -24.851562 19.46875 -24.65625 C 19.445312 -23.863281 19.410156 -22.460938 19.359375 -20.453125 C 19.316406 -18.441406 19.296875 -15.851562 19.296875 -12.6875 C 19.296875 -9.550781 19.316406 -6.972656 19.359375 -4.953125 C 19.410156 -2.929688 19.445312 -1.519531 19.46875 -0.71875 C 19.5 -0.53125 19.441406 -0.363281 19.296875 -0.21875 C 19.148438 -0.0703125 18.976562 0 18.78125 0 L 14.546875 0 C 14.347656 0 14.175781 -0.0703125 14.03125 -0.21875 C 13.882812 -0.363281 13.8125 -0.53125 13.8125 -0.71875 C 13.84375 -1.394531 13.875 -2.519531 13.90625 -4.09375 C 13.945312 -5.664062 13.976562 -7.648438 14 -10.046875 C 14 -10.234375 13.925781 -10.398438 13.78125 -10.546875 C 13.632812 -10.691406 13.460938 -10.765625 13.265625 -10.765625 L 8.015625 -10.765625 C 7.816406 -10.765625 7.644531 -10.691406 7.5 -10.546875 C 7.363281 -10.398438 7.296875 -10.234375 7.296875 -10.046875 C 7.316406 -7.648438 7.34375 -5.664062 7.375 -4.09375 C 7.414062 -2.519531 7.445312 -1.394531 7.46875 -0.71875 C 7.46875 -0.53125 7.398438 -0.363281 7.265625 -0.21875 C 7.140625 -0.0703125 6.96875 0 6.75 0 L 2.53125 0 C 2.320312 0 2.148438 -0.0703125 2.015625 -0.21875 C 1.878906 -0.363281 1.8125 -0.53125 1.8125 -0.71875 C 1.832031 -1.519531 1.867188 -2.929688 1.921875 -4.953125 C 1.972656 -6.972656 2 -9.550781 2 -12.6875 C 2 -15.851562 1.972656 -18.441406 1.921875 -20.453125 C 1.867188 -22.460938 1.832031 -23.863281 1.8125 -24.65625 C 1.8125 -24.851562 1.878906 -25.023438 2.015625 -25.171875 C 2.148438 -25.316406 2.320312 -25.390625 2.53125 -25.390625 L 6.75 -25.390625 C 6.96875 -25.390625 7.140625 -25.316406 7.265625 -25.171875 C 7.398438 -25.023438 7.46875 -24.851562 7.46875 -24.65625 C 7.445312 -23.976562 7.414062 -22.851562 7.375 -21.28125 C 7.34375 -19.71875 7.316406 -17.738281 7.296875 -15.34375 C 7.296875 -15.144531 7.363281 -14.972656 7.5 -14.828125 C 7.644531 -14.679688 7.816406 -14.609375 8.015625 -14.609375 L 13.265625 -14.609375 C 13.460938 -14.609375 13.632812 -14.679688 13.78125 -14.828125 C 13.925781 -14.972656 14 -15.144531 14 -15.34375 C 13.976562 -17.738281 13.945312 -19.71875 13.90625 -21.28125 C 13.875 -22.851562 13.84375 -23.976562 13.8125 -24.65625 C 13.8125 -24.851562 13.882812 -25.023438 14.03125 -25.171875 C 14.175781 -25.316406 14.347656 -25.390625 14.546875 -25.390625 Z M 18.78125 -25.390625 "/></g></g></g><g fill="#b4761a" fill-opacity="1"><g transform="translate(132.480635, 27.595685)"><g><path d="M 17.375 0 C 16.957031 0 16.710938 -0.191406 16.640625 -0.578125 C 16.597656 -0.921875 16.515625 -1.40625 16.390625 -2.03125 C 16.265625 -2.65625 16.117188 -3.429688 15.953125 -4.359375 C 15.878906 -4.742188 15.648438 -4.9375 15.265625 -4.9375 L 8.703125 -4.9375 C 8.316406 -4.9375 8.078125 -4.742188 7.984375 -4.359375 C 7.804688 -3.429688 7.660156 -2.65625 7.546875 -2.03125 C 7.441406 -1.40625 7.359375 -0.921875 7.296875 -0.578125 C 7.242188 -0.191406 7.007812 0 6.59375 0 L 2.359375 0 C 2.117188 0 1.925781 -0.0859375 1.78125 -0.265625 C 1.632812 -0.453125 1.597656 -0.65625 1.671875 -0.875 C 1.859375 -1.71875 2.179688 -3.132812 2.640625 -5.125 C 3.109375 -7.125 3.664062 -9.644531 4.3125 -12.6875 C 5.019531 -15.957031 5.566406 -18.613281 5.953125 -20.65625 C 6.335938 -22.695312 6.585938 -24.082031 6.703125 -24.8125 C 6.773438 -25.195312 7.003906 -25.390625 7.390625 -25.390625 L 16.53125 -25.390625 C 16.945312 -25.390625 17.191406 -25.195312 17.265625 -24.8125 C 17.378906 -24.082031 17.628906 -22.695312 18.015625 -20.65625 C 18.410156 -18.613281 18.945312 -15.957031 19.625 -12.6875 C 20.269531 -9.644531 20.820312 -7.125 21.28125 -5.125 C 21.75 -3.132812 22.085938 -1.71875 22.296875 -0.875 C 22.347656 -0.65625 22.300781 -0.453125 22.15625 -0.265625 C 22.007812 -0.0859375 21.828125 0 21.609375 0 Z M 9.75 -8.78125 L 14.21875 -8.78125 C 14.4375 -8.78125 14.617188 -8.863281 14.765625 -9.03125 C 14.910156 -9.195312 14.957031 -9.390625 14.90625 -9.609375 C 14.8125 -10.085938 14.707031 -10.585938 14.59375 -11.109375 C 14.488281 -11.628906 14.375 -12.15625 14.25 -12.6875 C 13.882812 -14.40625 13.550781 -15.957031 13.25 -17.34375 C 12.945312 -18.738281 12.675781 -19.945312 12.4375 -20.96875 C 12.382812 -21.207031 12.234375 -21.328125 11.984375 -21.328125 C 11.734375 -21.328125 11.570312 -21.207031 11.5 -20.96875 C 11.28125 -19.945312 11.015625 -18.738281 10.703125 -17.34375 C 10.390625 -15.957031 10.050781 -14.40625 9.6875 -12.6875 C 9.5625 -12.15625 9.441406 -11.628906 9.328125 -11.109375 C 9.222656 -10.585938 9.125 -10.085938 9.03125 -9.609375 C 8.976562 -9.390625 9.023438 -9.195312 9.171875 -9.03125 C 9.316406 -8.863281 9.507812 -8.78125 9.75 -8.78125 Z M 9.75 -8.78125 "/></g></g></g><g fill="#b4761a" fill-opacity="1"><g transform="translate(156.449928, 27.595685)"><g/></g></g><g fill="#b4761a" fill-opacity="1"><g transform="translate(167.256051, 27.595685)"><g><path d="M 15.78125 -12.4375 C 16.957031 -12.125 17.875 -11.578125 18.53125 -10.796875 C 19.1875 -10.023438 19.515625 -8.867188 19.515625 -7.328125 C 19.515625 -5.753906 19.273438 -4.488281 18.796875 -3.53125 C 18.328125 -2.582031 17.679688 -1.847656 16.859375 -1.328125 C 16.035156 -0.804688 15.09375 -0.453125 14.03125 -0.265625 C 12.96875 -0.0859375 11.84375 0 10.65625 0 L 2.53125 0 C 2.320312 0 2.148438 -0.0703125 2.015625 -0.21875 C 1.878906 -0.363281 1.8125 -0.53125 1.8125 -0.71875 C 1.832031 -1.519531 1.867188 -2.929688 1.921875 -4.953125 C 1.972656 -6.972656 2 -9.550781 2 -12.6875 C 2 -15.851562 1.972656 -18.441406 1.921875 -20.453125 C 1.867188 -22.460938 1.832031 -23.863281 1.8125 -24.65625 C 1.8125 -24.851562 1.878906 -25.023438 2.015625 -25.171875 C 2.148438 -25.316406 2.320312 -25.390625 2.53125 -25.390625 L 10.40625 -25.390625 C 11.59375 -25.390625 12.71875 -25.296875 13.78125 -25.109375 C 14.84375 -24.929688 15.785156 -24.582031 16.609375 -24.0625 C 17.429688 -23.539062 18.078125 -22.800781 18.546875 -21.84375 C 19.015625 -20.894531 19.25 -19.632812 19.25 -18.0625 C 19.25 -16.5625 18.945312 -15.421875 18.34375 -14.640625 C 17.738281 -13.867188 16.882812 -13.328125 15.78125 -13.015625 C 15.632812 -12.972656 15.5625 -12.878906 15.5625 -12.734375 C 15.5625 -12.585938 15.632812 -12.488281 15.78125 -12.4375 Z M 10.484375 -21.546875 L 8.09375 -21.546875 C 7.894531 -21.546875 7.722656 -21.476562 7.578125 -21.34375 C 7.429688 -21.207031 7.359375 -21.046875 7.359375 -20.859375 C 7.359375 -20.109375 7.351562 -19.269531 7.34375 -18.34375 C 7.332031 -17.425781 7.316406 -16.425781 7.296875 -15.34375 C 7.296875 -15.144531 7.363281 -14.972656 7.5 -14.828125 C 7.644531 -14.679688 7.816406 -14.609375 8.015625 -14.609375 L 10.484375 -14.609375 C 11.273438 -14.609375 11.894531 -14.785156 12.34375 -15.140625 C 12.789062 -15.492188 13.097656 -15.9375 13.265625 -16.46875 C 13.441406 -17 13.53125 -17.539062 13.53125 -18.09375 C 13.53125 -19.0625 13.351562 -19.789062 13 -20.28125 C 12.644531 -20.78125 12.234375 -21.113281 11.765625 -21.28125 C 11.296875 -21.457031 10.867188 -21.546875 10.484375 -21.546875 Z M 10.734375 -3.84375 C 11.097656 -3.84375 11.519531 -3.925781 12 -4.09375 C 12.488281 -4.269531 12.90625 -4.601562 13.25 -5.09375 C 13.601562 -5.59375 13.78125 -6.335938 13.78125 -7.328125 C 13.78125 -7.859375 13.691406 -8.390625 13.515625 -8.921875 C 13.347656 -9.453125 13.039062 -9.890625 12.59375 -10.234375 C 12.15625 -10.585938 11.535156 -10.765625 10.734375 -10.765625 L 8.015625 -10.765625 C 7.816406 -10.765625 7.644531 -10.691406 7.5 -10.546875 C 7.363281 -10.398438 7.296875 -10.234375 7.296875 -10.046875 C 7.316406 -8.953125 7.332031 -7.945312 7.34375 -7.03125 C 7.351562 -6.113281 7.359375 -5.28125 7.359375 -4.53125 C 7.359375 -4.34375 7.429688 -4.179688 7.578125 -4.046875 C 7.722656 -3.910156 7.894531 -3.84375 8.09375 -3.84375 Z M 10.734375 -3.84375 "/></g></g></g><g fill="#b4761a" fill-opacity="1"><g transform="translate(188.578208, 27.595685)"><g><path d="M 19.46875 -17.734375 C 19.46875 -17.222656 19.457031 -16.738281 19.4375 -16.28125 C 19.414062 -15.820312 19.390625 -15.3125 19.359375 -14.75 C 19.335938 -14.195312 19.328125 -13.507812 19.328125 -12.6875 C 19.328125 -11.863281 19.335938 -11.175781 19.359375 -10.625 C 19.390625 -10.070312 19.414062 -9.5625 19.4375 -9.09375 C 19.457031 -8.632812 19.46875 -8.15625 19.46875 -7.65625 C 19.46875 -6.101562 19.191406 -4.726562 18.640625 -3.53125 C 18.085938 -2.332031 17.160156 -1.390625 15.859375 -0.703125 C 14.566406 -0.015625 12.832031 0.328125 10.65625 0.328125 C 8.4375 0.328125 6.675781 -0.0546875 5.375 -0.828125 C 4.082031 -1.609375 3.164062 -2.609375 2.625 -3.828125 C 2.082031 -5.046875 1.8125 -6.320312 1.8125 -7.65625 C 1.8125 -8.15625 1.820312 -8.632812 1.84375 -9.09375 C 1.875 -9.5625 1.90625 -10.070312 1.9375 -10.625 C 1.976562 -11.175781 2 -11.863281 2 -12.6875 C 2 -13.507812 1.976562 -14.195312 1.9375 -14.75 C 1.90625 -15.3125 1.875 -15.820312 1.84375 -16.28125 C 1.820312 -16.738281 1.8125 -17.222656 1.8125 -17.734375 C 1.8125 -19.285156 2.09375 -20.65625 2.65625 -21.84375 C 3.226562 -23.039062 4.15625 -23.984375 5.4375 -24.671875 C 6.71875 -25.367188 8.457031 -25.71875 10.65625 -25.71875 C 12.863281 -25.71875 14.613281 -25.328125 15.90625 -24.546875 C 17.195312 -23.773438 18.113281 -22.78125 18.65625 -21.5625 C 19.195312 -20.34375 19.46875 -19.066406 19.46875 -17.734375 Z M 10.59375 -3.515625 C 11.53125 -3.515625 12.226562 -3.734375 12.6875 -4.171875 C 13.144531 -4.609375 13.441406 -5.144531 13.578125 -5.78125 C 13.710938 -6.425781 13.78125 -7.050781 13.78125 -7.65625 L 13.78125 -17.734375 C 13.78125 -17.953125 13.753906 -18.285156 13.703125 -18.734375 C 13.660156 -19.179688 13.546875 -19.644531 13.359375 -20.125 C 13.179688 -20.613281 12.882812 -21.023438 12.46875 -21.359375 C 12.0625 -21.703125 11.484375 -21.875 10.734375 -21.875 C 9.765625 -21.875 9.050781 -21.65625 8.59375 -21.21875 C 8.132812 -20.78125 7.84375 -20.238281 7.71875 -19.59375 C 7.601562 -18.957031 7.546875 -18.335938 7.546875 -17.734375 L 7.546875 -7.65625 C 7.546875 -7.4375 7.5625 -7.101562 7.59375 -6.65625 C 7.632812 -6.207031 7.742188 -5.738281 7.921875 -5.25 C 8.109375 -4.769531 8.410156 -4.359375 8.828125 -4.015625 C 9.253906 -3.679688 9.84375 -3.515625 10.59375 -3.515625 Z M 10.59375 -3.515625 "/></g></g></g><g fill="#b4761a" fill-opacity="1"><g transform="translate(209.900365, 27.595685)"><g><path d="M 19.46875 -17.734375 C 19.46875 -17.222656 19.457031 -16.738281 19.4375 -16.28125 C 19.414062 -15.820312 19.390625 -15.3125 19.359375 -14.75 C 19.335938 -14.195312 19.328125 -13.507812 19.328125 -12.6875 C 19.328125 -11.863281 19.335938 -11.175781 19.359375 -10.625 C 19.390625 -10.070312 19.414062 -9.5625 19.4375 -9.09375 C 19.457031 -8.632812 19.46875 -8.15625 19.46875 -7.65625 C 19.46875 -6.101562 19.191406 -4.726562 18.640625 -3.53125 C 18.085938 -2.332031 17.160156 -1.390625 15.859375 -0.703125 C 14.566406 -0.015625 12.832031 0.328125 10.65625 0.328125 C 8.4375 0.328125 6.675781 -0.0546875 5.375 -0.828125 C 4.082031 -1.609375 3.164062 -2.609375 2.625 -3.828125 C 2.082031 -5.046875 1.8125 -6.320312 1.8125 -7.65625 C 1.8125 -8.15625 1.820312 -8.632812 1.84375 -9.09375 C 1.875 -9.5625 1.90625 -10.070312 1.9375 -10.625 C 1.976562 -11.175781 2 -11.863281 2 -12.6875 C 2 -13.507812 1.976562 -14.195312 1.9375 -14.75 C 1.90625 -15.3125 1.875 -15.820312 1.84375 -16.28125 C 1.820312 -16.738281 1.8125 -17.222656 1.8125 -17.734375 C 1.8125 -19.285156 2.09375 -20.65625 2.65625 -21.84375 C 3.226562 -23.039062 4.15625 -23.984375 5.4375 -24.671875 C 6.71875 -25.367188 8.457031 -25.71875 10.65625 -25.71875 C 12.863281 -25.71875 14.613281 -25.328125 15.90625 -24.546875 C 17.195312 -23.773438 18.113281 -22.78125 18.65625 -21.5625 C 19.195312 -20.34375 19.46875 -19.066406 19.46875 -17.734375 Z M 10.59375 -3.515625 C 11.53125 -3.515625 12.226562 -3.734375 12.6875 -4.171875 C 13.144531 -4.609375 13.441406 -5.144531 13.578125 -5.78125 C 13.710938 -6.425781 13.78125 -7.050781 13.78125 -7.65625 L 13.78125 -17.734375 C 13.78125 -17.953125 13.753906 -18.285156 13.703125 -18.734375 C 13.660156 -19.179688 13.546875 -19.644531 13.359375 -20.125 C 13.179688 -20.613281 12.882812 -21.023438 12.46875 -21.359375 C 12.0625 -21.703125 11.484375 -21.875 10.734375 -21.875 C 9.765625 -21.875 9.050781 -21.65625 8.59375 -21.21875 C 8.132812 -20.78125 7.84375 -20.238281 7.71875 -19.59375 C 7.601562 -18.957031 7.546875 -18.335938 7.546875 -17.734375 L 7.546875 -7.65625 C 7.546875 -7.4375 7.5625 -7.101562 7.59375 -6.65625 C 7.632812 -6.207031 7.742188 -5.738281 7.921875 -5.25 C 8.109375 -4.769531 8.410156 -4.359375 8.828125 -4.015625 C 9.253906 -3.679688 9.84375 -3.515625 10.59375 -3.515625 Z M 10.59375 -3.515625 "/></g></g></g><g fill="#b4761a" fill-opacity="1"><g transform="translate(231.222535, 27.595685)"><g><path d="M 14.46875 0 C 14.175781 0 13.972656 -0.132812 13.859375 -0.40625 L 7.875 -11.859375 C 7.800781 -12.003906 7.6875 -12.054688 7.53125 -12.015625 C 7.375 -11.984375 7.296875 -11.882812 7.296875 -11.71875 C 7.296875 -8.832031 7.316406 -6.460938 7.359375 -4.609375 C 7.410156 -2.765625 7.445312 -1.46875 7.46875 -0.71875 C 7.46875 -0.53125 7.398438 -0.363281 7.265625 -0.21875 C 7.140625 -0.0703125 6.96875 0 6.75 0 L 2.53125 0 C 2.320312 0 2.148438 -0.0703125 2.015625 -0.21875 C 1.878906 -0.363281 1.8125 -0.53125 1.8125 -0.71875 C 1.832031 -1.519531 1.867188 -2.929688 1.921875 -4.953125 C 1.972656 -6.972656 2 -9.550781 2 -12.6875 C 2 -15.851562 1.972656 -18.441406 1.921875 -20.453125 C 1.867188 -22.460938 1.832031 -23.863281 1.8125 -24.65625 C 1.8125 -24.851562 1.878906 -25.023438 2.015625 -25.171875 C 2.148438 -25.316406 2.320312 -25.390625 2.53125 -25.390625 L 6.75 -25.390625 C 6.96875 -25.390625 7.140625 -25.316406 7.265625 -25.171875 C 7.398438 -25.023438 7.46875 -24.851562 7.46875 -24.65625 C 7.445312 -23.9375 7.414062 -22.734375 7.375 -21.046875 C 7.34375 -19.367188 7.316406 -17.238281 7.296875 -14.65625 C 7.296875 -14.507812 7.375 -14.410156 7.53125 -14.359375 C 7.6875 -14.304688 7.800781 -14.351562 7.875 -14.5 L 13.34375 -24.984375 C 13.46875 -25.253906 13.675781 -25.390625 13.96875 -25.390625 L 19.078125 -25.390625 C 19.367188 -25.390625 19.578125 -25.257812 19.703125 -25 C 19.835938 -24.75 19.820312 -24.503906 19.65625 -24.265625 C 19.03125 -23.421875 18.144531 -22.113281 17 -20.34375 C 15.863281 -18.582031 14.609375 -16.382812 13.234375 -13.75 C 13.015625 -13.363281 13.003906 -12.988281 13.203125 -12.625 C 14.722656 -9.71875 16.101562 -7.296875 17.34375 -5.359375 C 18.59375 -3.429688 19.53125 -2.019531 20.15625 -1.125 C 20.332031 -0.882812 20.351562 -0.632812 20.21875 -0.375 C 20.082031 -0.125 19.867188 0 19.578125 0 Z M 14.46875 0 "/></g></g></g></g></g><g transform="matrix(1, 0, 0, 1, 75, 288)"><g clip-path="url(#4afdf050b3)"><g fill="#5e3d0d" fill-opacity="1"><g transform="translate(1.400854, 16.811572)"><g><path d="M 1.3125 -4.1875 C 0.875 -4.1875 0.546875 -4.3125 0.328125 -4.5625 C 0.109375 -4.820312 0 -5.171875 0 -5.609375 C 0 -6.066406 0.109375 -6.421875 0.328125 -6.671875 C 0.546875 -6.921875 0.875 -7.046875 1.3125 -7.046875 C 1.738281 -7.046875 2.0625 -6.914062 2.28125 -6.65625 C 2.5 -6.40625 2.609375 -6.054688 2.609375 -5.609375 C 2.609375 -5.148438 2.5 -4.796875 2.28125 -4.546875 C 2.0625 -4.304688 1.738281 -4.1875 1.3125 -4.1875 Z M 1.3125 -4.1875 "/></g></g></g><g fill="#5e3d0d" fill-opacity="1"><g transform="translate(4.01493, 16.811572)"><g/></g></g><g fill="#5e3d0d" fill-opacity="1"><g transform="translate(8.122749, 16.811572)"><g><path d="M 0.640625 -0.765625 C 0.867188 -0.816406 1.054688 -0.878906 1.203125 -0.953125 C 1.359375 -1.023438 1.523438 -1.148438 1.703125 -1.328125 L 1.703125 -11.125 C 1.441406 -11.351562 1.0625 -11.550781 0.5625 -11.71875 L 0.640625 -12.453125 L 5.84375 -12.453125 L 5.734375 -11.6875 C 5.429688 -11.625 5.1875 -11.554688 5 -11.484375 C 4.8125 -11.410156 4.625 -11.289062 4.4375 -11.125 L 4.4375 -1.328125 C 4.726562 -1.066406 5.195312 -0.867188 5.84375 -0.734375 L 5.71875 0 L 0.5625 0 Z M 8.3125 0 C 8.300781 -0.226562 8.269531 -0.414062 8.21875 -0.5625 C 8.175781 -0.71875 8.09375 -0.890625 7.96875 -1.078125 L 4.703125 -6.5 L 8.625 -10.84375 C 8.738281 -10.976562 8.796875 -11.101562 8.796875 -11.21875 C 8.796875 -11.382812 8.703125 -11.507812 8.515625 -11.59375 C 8.328125 -11.675781 8.097656 -11.71875 7.828125 -11.71875 L 7.71875 -12.453125 L 12.375 -12.453125 L 12.265625 -11.71875 C 11.546875 -11.675781 11 -11.4375 10.625 -11 L 7.40625 -7.4375 L 10.953125 -1.625 C 11.078125 -1.425781 11.28125 -1.257812 11.5625 -1.125 C 11.84375 -0.988281 12.222656 -0.867188 12.703125 -0.765625 L 12.5625 0 Z M 8.3125 0 "/></g></g></g><g fill="#5e3d0d" fill-opacity="1"><g transform="translate(20.819661, 16.811572)"><g><path d="M 0.6875 -0.765625 C 0.925781 -0.816406 1.109375 -0.875 1.234375 -0.9375 C 1.367188 -1 1.519531 -1.097656 1.6875 -1.234375 L 1.6875 -6.609375 C 1.6875 -7.054688 1.597656 -7.363281 1.421875 -7.53125 C 1.242188 -7.695312 0.9375 -7.796875 0.5 -7.828125 L 0.5625 -8.546875 L 1.171875 -8.65625 C 2.492188 -8.882812 3.351562 -9.0625 3.75 -9.1875 L 4.09375 -9.015625 L 4.234375 -7.9375 C 4.578125 -8.332031 4.976562 -8.640625 5.4375 -8.859375 C 5.90625 -9.078125 6.421875 -9.1875 6.984375 -9.1875 C 7.828125 -9.1875 8.5 -8.929688 9 -8.421875 C 9.507812 -7.910156 9.765625 -7.207031 9.765625 -6.3125 L 9.765625 -1.234375 C 10.078125 -0.992188 10.472656 -0.828125 10.953125 -0.734375 L 10.890625 0 L 6.15625 0 L 6.21875 -0.734375 C 6.59375 -0.804688 6.894531 -0.972656 7.125 -1.234375 L 7.125 -6.140625 C 7.125 -6.753906 7.023438 -7.207031 6.828125 -7.5 C 6.640625 -7.789062 6.351562 -7.9375 5.96875 -7.9375 C 5.644531 -7.9375 5.332031 -7.84375 5.03125 -7.65625 C 4.726562 -7.46875 4.488281 -7.21875 4.3125 -6.90625 L 4.3125 -1.234375 C 4.601562 -1.003906 4.976562 -0.835938 5.4375 -0.734375 L 5.359375 0 L 0.640625 0 Z M 0.6875 -0.765625 "/></g></g></g><g fill="#5e3d0d" fill-opacity="1"><g transform="translate(32.0975, 16.811572)"><g><path d="M 4.953125 0.125 C 3.460938 0.125 2.34375 -0.265625 1.59375 -1.046875 C 0.84375 -1.828125 0.46875 -2.976562 0.46875 -4.5 C 0.46875 -6.03125 0.84375 -7.191406 1.59375 -7.984375 C 2.34375 -8.785156 3.460938 -9.1875 4.953125 -9.1875 C 6.429688 -9.1875 7.546875 -8.785156 8.296875 -7.984375 C 9.046875 -7.191406 9.421875 -6.035156 9.421875 -4.515625 C 9.421875 -2.992188 9.046875 -1.835938 8.296875 -1.046875 C 7.546875 -0.265625 6.429688 0.125 4.953125 0.125 Z M 4.953125 -0.921875 C 5.554688 -0.921875 5.992188 -1.203125 6.265625 -1.765625 C 6.546875 -2.328125 6.6875 -3.242188 6.6875 -4.515625 C 6.6875 -5.785156 6.546875 -6.707031 6.265625 -7.28125 C 5.992188 -7.851562 5.554688 -8.140625 4.953125 -8.140625 C 4.335938 -8.140625 3.894531 -7.851562 3.625 -7.28125 C 3.351562 -6.707031 3.21875 -5.785156 3.21875 -4.515625 C 3.21875 -3.242188 3.351562 -2.328125 3.625 -1.765625 C 3.894531 -1.203125 4.335938 -0.921875 4.953125 -0.921875 Z M 4.953125 -0.921875 "/></g></g></g><g fill="#5e3d0d" fill-opacity="1"><g transform="translate(41.993617, 16.811572)"><g><path d="M 0.78125 -7.8125 C 0.59375 -8.09375 0.238281 -8.285156 -0.28125 -8.390625 L -0.25 -9.03125 L 4.65625 -9.03125 L 4.5625 -8.390625 C 4.113281 -8.359375 3.742188 -8.222656 3.453125 -7.984375 L 4.90625 -2.875 L 7.015625 -9.03125 L 8.703125 -9.03125 L 10.46875 -2.859375 L 12.21875 -7.96875 C 11.925781 -8.15625 11.523438 -8.296875 11.015625 -8.390625 L 11.09375 -9.03125 L 14.5625 -9.03125 L 14.484375 -8.390625 C 14.265625 -8.367188 14.0625 -8.3125 13.875 -8.21875 C 13.695312 -8.125 13.566406 -8.003906 13.484375 -7.859375 L 10.734375 0 L 8.8125 0 L 7.109375 -5.5625 L 5.171875 0 L 3.25 0 Z M 0.78125 -7.8125 "/></g></g></g><g fill="#5e3d0d" fill-opacity="1"><g transform="translate(56.53905, 16.811572)"><g><path d="M 0.640625 -0.765625 C 0.867188 -0.816406 1.046875 -0.875 1.171875 -0.9375 C 1.304688 -1 1.453125 -1.097656 1.609375 -1.234375 L 1.609375 -10.421875 C 1.609375 -10.878906 1.523438 -11.191406 1.359375 -11.359375 C 1.191406 -11.523438 0.890625 -11.625 0.453125 -11.65625 L 0.5 -12.375 C 0.6875 -12.414062 1.023438 -12.472656 1.515625 -12.546875 C 2.847656 -12.773438 3.648438 -12.929688 3.921875 -13.015625 L 4.25 -12.828125 L 4.25 -1.234375 C 4.363281 -1.128906 4.523438 -1.03125 4.734375 -0.9375 C 4.953125 -0.84375 5.1875 -0.773438 5.4375 -0.734375 L 5.375 0 L 0.5625 0 Z M 0.640625 -0.765625 "/></g></g></g><g fill="#5e3d0d" fill-opacity="1"><g transform="translate(62.346021, 16.811572)"><g><path d="M 4.8125 0.125 C 3.375 0.125 2.289062 -0.28125 1.5625 -1.09375 C 0.832031 -1.90625 0.46875 -3.019531 0.46875 -4.4375 C 0.46875 -5.925781 0.851562 -7.085938 1.625 -7.921875 C 2.394531 -8.765625 3.507812 -9.1875 4.96875 -9.1875 C 6.363281 -9.1875 7.351562 -8.863281 7.9375 -8.21875 C 8.519531 -7.570312 8.847656 -6.609375 8.921875 -5.328125 L 8.40625 -4.53125 L 3.140625 -4.53125 L 3.140625 -4.234375 C 3.140625 -3.191406 3.285156 -2.414062 3.578125 -1.90625 C 3.878906 -1.40625 4.441406 -1.15625 5.265625 -1.15625 C 5.734375 -1.15625 6.195312 -1.238281 6.65625 -1.40625 C 7.113281 -1.570312 7.507812 -1.832031 7.84375 -2.1875 L 8.59375 -1.453125 C 8.082031 -0.941406 7.546875 -0.550781 6.984375 -0.28125 C 6.429688 -0.0078125 5.707031 0.125 4.8125 0.125 Z M 6.28125 -5.4375 C 6.28125 -6.425781 6.175781 -7.144531 5.96875 -7.59375 C 5.769531 -8.039062 5.410156 -8.265625 4.890625 -8.265625 C 3.753906 -8.265625 3.171875 -7.269531 3.140625 -5.28125 Z M 6.28125 -5.4375 "/></g></g></g><g fill="#5e3d0d" fill-opacity="1"><g transform="translate(71.924722, 16.811572)"><g><path d="M 3.90625 0.125 C 2.789062 0.125 1.9375 -0.242188 1.34375 -0.984375 C 0.757812 -1.734375 0.46875 -2.832031 0.46875 -4.28125 C 0.46875 -5.875 0.820312 -7.085938 1.53125 -7.921875 C 2.25 -8.765625 3.269531 -9.1875 4.59375 -9.1875 C 4.96875 -9.1875 5.296875 -9.148438 5.578125 -9.078125 C 5.859375 -9.003906 6.144531 -8.890625 6.4375 -8.734375 L 6.4375 -10.421875 C 6.4375 -10.878906 6.34375 -11.191406 6.15625 -11.359375 C 5.96875 -11.523438 5.628906 -11.625 5.140625 -11.65625 L 5.1875 -12.375 C 5.414062 -12.425781 5.765625 -12.484375 6.234375 -12.546875 C 6.359375 -12.566406 6.734375 -12.628906 7.359375 -12.734375 C 7.992188 -12.835938 8.457031 -12.929688 8.75 -13.015625 L 9.078125 -12.828125 L 9.078125 -1.15625 C 9.191406 -1.0625 9.347656 -0.96875 9.546875 -0.875 C 9.753906 -0.78125 9.96875 -0.707031 10.1875 -0.65625 L 10.125 0 L 6.765625 0 L 6.515625 -1.21875 C 5.984375 -0.320312 5.113281 0.125 3.90625 0.125 Z M 4.75 -0.984375 C 5.289062 -0.984375 5.707031 -1.265625 6 -1.828125 C 6.289062 -2.398438 6.4375 -3.25 6.4375 -4.375 L 6.4375 -7.828125 C 6.300781 -7.921875 6.125 -8 5.90625 -8.0625 C 5.6875 -8.132812 5.460938 -8.171875 5.234375 -8.171875 C 3.867188 -8.171875 3.1875 -6.875 3.1875 -4.28125 C 3.1875 -3.15625 3.3125 -2.320312 3.5625 -1.78125 C 3.8125 -1.25 4.207031 -0.984375 4.75 -0.984375 Z M 4.75 -0.984375 "/></g></g></g><g fill="#5e3d0d" fill-opacity="1"><g transform="translate(82.567717, 16.811572)"><g><path d="M 4.921875 4.09375 C 3.453125 4.09375 2.320312 3.890625 1.53125 3.484375 C 0.738281 3.078125 0.34375 2.492188 0.34375 1.734375 C 0.34375 1.253906 0.457031 0.816406 0.6875 0.421875 C 0.925781 0.0351562 1.296875 -0.320312 1.796875 -0.65625 C 1.609375 -0.957031 1.515625 -1.332031 1.515625 -1.78125 L 3.140625 -2.90625 C 2.378906 -3.125 1.785156 -3.488281 1.359375 -4 C 0.941406 -4.519531 0.734375 -5.144531 0.734375 -5.875 C 0.734375 -6.925781 1.070312 -7.738281 1.75 -8.3125 C 2.425781 -8.894531 3.378906 -9.1875 4.609375 -9.1875 C 5.609375 -9.1875 6.4375 -8.984375 7.09375 -8.578125 C 7.269531 -8.722656 7.359375 -8.921875 7.359375 -9.171875 C 7.359375 -9.421875 7.207031 -9.625 6.90625 -9.78125 C 6.90625 -9.988281 7 -10.175781 7.1875 -10.34375 C 7.382812 -10.507812 7.613281 -10.59375 7.875 -10.59375 C 8.1875 -10.59375 8.4375 -10.5 8.625 -10.3125 C 8.820312 -10.132812 8.921875 -9.898438 8.921875 -9.609375 C 8.921875 -9.304688 8.8125 -9 8.59375 -8.6875 C 8.375 -8.382812 8.101562 -8.148438 7.78125 -7.984375 C 8.25 -7.429688 8.484375 -6.726562 8.484375 -5.875 C 8.484375 -4.914062 8.132812 -4.15625 7.4375 -3.59375 C 6.738281 -3.03125 5.796875 -2.75 4.609375 -2.75 L 4.3125 -2.75 L 3.671875 -1.9375 C 3.691406 -1.800781 3.785156 -1.703125 3.953125 -1.640625 C 4.117188 -1.585938 4.390625 -1.5625 4.765625 -1.5625 L 5.546875 -1.5625 C 6.785156 -1.5625 7.726562 -1.320312 8.375 -0.84375 C 9.019531 -0.363281 9.34375 0.332031 9.34375 1.25 C 9.34375 2.15625 8.960938 2.851562 8.203125 3.34375 C 7.441406 3.84375 6.347656 4.09375 4.921875 4.09375 Z M 4.609375 -3.65625 C 5.128906 -3.65625 5.488281 -3.8125 5.6875 -4.125 C 5.894531 -4.445312 6 -5.03125 6 -5.875 C 6 -6.707031 5.890625 -7.3125 5.671875 -7.6875 C 5.453125 -8.0625 5.097656 -8.25 4.609375 -8.25 C 4.171875 -8.25 3.851562 -8.0625 3.65625 -7.6875 C 3.457031 -7.3125 3.359375 -6.707031 3.359375 -5.875 C 3.359375 -5.269531 3.390625 -4.8125 3.453125 -4.5 C 3.523438 -4.1875 3.648438 -3.96875 3.828125 -3.84375 C 4.003906 -3.71875 4.265625 -3.65625 4.609375 -3.65625 Z M 4.921875 3.046875 C 5.679688 3.046875 6.242188 2.914062 6.609375 2.65625 C 6.984375 2.40625 7.171875 2.003906 7.171875 1.453125 C 7.171875 0.484375 6.476562 0 5.09375 0 L 3.390625 0 C 3.171875 0.226562 3.007812 0.457031 2.90625 0.6875 C 2.8125 0.914062 2.765625 1.171875 2.765625 1.453125 C 2.765625 2.003906 2.9375 2.40625 3.28125 2.65625 C 3.632812 2.914062 4.179688 3.046875 4.921875 3.046875 Z M 4.921875 3.046875 "/></g></g></g><g fill="#5e3d0d" fill-opacity="1"><g transform="translate(92.053058, 16.811572)"><g><path d="M 4.8125 0.125 C 3.375 0.125 2.289062 -0.28125 1.5625 -1.09375 C 0.832031 -1.90625 0.46875 -3.019531 0.46875 -4.4375 C 0.46875 -5.925781 0.851562 -7.085938 1.625 -7.921875 C 2.394531 -8.765625 3.507812 -9.1875 4.96875 -9.1875 C 6.363281 -9.1875 7.351562 -8.863281 7.9375 -8.21875 C 8.519531 -7.570312 8.847656 -6.609375 8.921875 -5.328125 L 8.40625 -4.53125 L 3.140625 -4.53125 L 3.140625 -4.234375 C 3.140625 -3.191406 3.285156 -2.414062 3.578125 -1.90625 C 3.878906 -1.40625 4.441406 -1.15625 5.265625 -1.15625 C 5.734375 -1.15625 6.195312 -1.238281 6.65625 -1.40625 C 7.113281 -1.570312 7.507812 -1.832031 7.84375 -2.1875 L 8.59375 -1.453125 C 8.082031 -0.941406 7.546875 -0.550781 6.984375 -0.28125 C 6.429688 -0.0078125 5.707031 0.125 4.8125 0.125 Z M 6.28125 -5.4375 C 6.28125 -6.425781 6.175781 -7.144531 5.96875 -7.59375 C 5.769531 -8.039062 5.410156 -8.265625 4.890625 -8.265625 C 3.753906 -8.265625 3.171875 -7.269531 3.140625 -5.28125 Z M 6.28125 -5.4375 "/></g></g></g><g fill="#5e3d0d" fill-opacity="1"><g transform="translate(101.631758, 16.811572)"><g/></g></g><g fill="#5e3d0d" fill-opacity="1"><g transform="translate(105.739578, 16.811572)"><g><path d="M 0.640625 -0.765625 C 0.835938 -0.785156 1.039062 -0.84375 1.25 -0.9375 C 1.457031 -1.03125 1.609375 -1.128906 1.703125 -1.234375 L 1.703125 -11.21875 C 1.398438 -11.476562 1.019531 -11.660156 0.5625 -11.765625 L 0.609375 -12.453125 L 9.515625 -12.453125 L 9.6875 -9.375 C 9.425781 -9.300781 9.175781 -9.265625 8.9375 -9.265625 C 8.726562 -9.265625 8.515625 -9.28125 8.296875 -9.3125 C 8.191406 -9.789062 8.078125 -10.179688 7.953125 -10.484375 C 7.828125 -10.785156 7.671875 -11.0625 7.484375 -11.3125 L 4.4375 -11.3125 L 4.4375 -6.890625 L 6.1875 -7.015625 C 6.40625 -7.046875 6.609375 -7.171875 6.796875 -7.390625 C 6.992188 -7.617188 7.132812 -7.910156 7.21875 -8.265625 L 8.203125 -8.265625 L 8.203125 -4.40625 L 7.21875 -4.40625 C 7.050781 -4.90625 6.882812 -5.253906 6.71875 -5.453125 C 6.5625 -5.648438 6.375 -5.757812 6.15625 -5.78125 L 4.4375 -5.9375 L 4.4375 -1.328125 C 4.726562 -1.066406 5.195312 -0.867188 5.84375 -0.734375 L 5.71875 0 L 0.5625 0 Z M 0.640625 -0.765625 "/></g></g></g><g fill="#5e3d0d" fill-opacity="1"><g transform="translate(115.710393, 16.811572)"><g><path d="M 4.953125 0.125 C 3.460938 0.125 2.34375 -0.265625 1.59375 -1.046875 C 0.84375 -1.828125 0.46875 -2.976562 0.46875 -4.5 C 0.46875 -6.03125 0.84375 -7.191406 1.59375 -7.984375 C 2.34375 -8.785156 3.460938 -9.1875 4.953125 -9.1875 C 6.429688 -9.1875 7.546875 -8.785156 8.296875 -7.984375 C 9.046875 -7.191406 9.421875 -6.035156 9.421875 -4.515625 C 9.421875 -2.992188 9.046875 -1.835938 8.296875 -1.046875 C 7.546875 -0.265625 6.429688 0.125 4.953125 0.125 Z M 4.953125 -0.921875 C 5.554688 -0.921875 5.992188 -1.203125 6.265625 -1.765625 C 6.546875 -2.328125 6.6875 -3.242188 6.6875 -4.515625 C 6.6875 -5.785156 6.546875 -6.707031 6.265625 -7.28125 C 5.992188 -7.851562 5.554688 -8.140625 4.953125 -8.140625 C 4.335938 -8.140625 3.894531 -7.851562 3.625 -7.28125 C 3.351562 -6.707031 3.21875 -5.785156 3.21875 -4.515625 C 3.21875 -3.242188 3.351562 -2.328125 3.625 -1.765625 C 3.894531 -1.203125 4.335938 -0.921875 4.953125 -0.921875 Z M 4.953125 -0.921875 "/></g></g></g><g fill="#5e3d0d" fill-opacity="1"><g transform="translate(125.606509, 16.811572)"><g><path d="M 0.6875 -0.765625 C 0.925781 -0.816406 1.109375 -0.875 1.234375 -0.9375 C 1.367188 -1 1.519531 -1.097656 1.6875 -1.234375 L 1.6875 -6.609375 C 1.6875 -7.054688 1.597656 -7.363281 1.421875 -7.53125 C 1.242188 -7.695312 0.9375 -7.796875 0.5 -7.828125 L 0.5625 -8.546875 L 1.171875 -8.65625 C 2.492188 -8.882812 3.351562 -9.0625 3.75 -9.1875 L 4.09375 -9.015625 L 4.234375 -7.78125 C 4.523438 -8.207031 4.875 -8.546875 5.28125 -8.796875 C 5.695312 -9.046875 6.148438 -9.171875 6.640625 -9.171875 C 7.128906 -9.171875 7.550781 -9.003906 7.90625 -8.671875 C 8.257812 -8.335938 8.4375 -7.929688 8.4375 -7.453125 C 8.4375 -7.003906 8.304688 -6.648438 8.046875 -6.390625 C 7.796875 -6.140625 7.503906 -6.015625 7.171875 -6.015625 C 6.785156 -6.015625 6.476562 -6.171875 6.25 -6.484375 C 6.425781 -6.691406 6.515625 -6.894531 6.515625 -7.09375 C 6.515625 -7.289062 6.429688 -7.453125 6.265625 -7.578125 C 6.097656 -7.703125 5.90625 -7.765625 5.6875 -7.765625 C 5.425781 -7.765625 5.164062 -7.65625 4.90625 -7.4375 C 4.65625 -7.21875 4.457031 -6.9375 4.3125 -6.59375 L 4.3125 -1.234375 C 4.601562 -1.003906 4.976562 -0.835938 5.4375 -0.734375 L 5.359375 0 L 0.640625 0 Z M 0.6875 -0.765625 "/></g></g></g><g fill="#5e3d0d" fill-opacity="1"><g transform="translate(134.083566, 16.811572)"><g/></g></g><g fill="#5e3d0d" fill-opacity="1"><g transform="translate(138.191386, 16.811572)"><g><path d="M 0.640625 -0.765625 C 0.835938 -0.785156 1.039062 -0.84375 1.25 -0.9375 C 1.457031 -1.03125 1.609375 -1.128906 1.703125 -1.234375 L 1.703125 -11.21875 C 1.398438 -11.476562 1.019531 -11.660156 0.5625 -11.765625 L 0.609375 -12.453125 L 9.6875 -12.453125 L 9.765625 -9.375 C 9.484375 -9.289062 9.222656 -9.25 8.984375 -9.25 C 8.859375 -9.25 8.660156 -9.269531 8.390625 -9.3125 C 8.285156 -9.789062 8.171875 -10.179688 8.046875 -10.484375 C 7.921875 -10.785156 7.765625 -11.0625 7.578125 -11.3125 L 4.4375 -11.3125 L 4.4375 -6.890625 L 6.1875 -7.015625 C 6.40625 -7.046875 6.609375 -7.171875 6.796875 -7.390625 C 6.992188 -7.617188 7.132812 -7.910156 7.21875 -8.265625 L 8.203125 -8.265625 L 8.203125 -4.40625 L 7.21875 -4.40625 C 7.050781 -4.90625 6.882812 -5.253906 6.71875 -5.453125 C 6.5625 -5.648438 6.375 -5.757812 6.15625 -5.78125 L 4.4375 -5.9375 L 4.4375 -1.15625 L 7.71875 -1.15625 C 8.113281 -1.75 8.40625 -2.539062 8.59375 -3.53125 C 8.851562 -3.5625 9.109375 -3.578125 9.359375 -3.578125 C 9.566406 -3.578125 9.769531 -3.5625 9.96875 -3.53125 L 9.78125 0 L 0.5625 0 Z M 0.640625 -0.765625 "/></g></g></g><g fill="#5e3d0d" fill-opacity="1"><g transform="translate(148.628987, 16.811572)"><g><path d="M 0.875 -7.59375 C 0.726562 -8.019531 0.34375 -8.285156 -0.28125 -8.390625 L -0.25 -9.03125 L 4.65625 -9.03125 L 4.5625 -8.390625 C 4.132812 -8.359375 3.773438 -8.238281 3.484375 -8.03125 L 5.34375 -2.8125 L 7.390625 -7.96875 C 7.109375 -8.15625 6.707031 -8.296875 6.1875 -8.390625 L 6.25 -9.03125 L 9.734375 -9.03125 L 9.65625 -8.390625 C 9.457031 -8.367188 9.269531 -8.316406 9.09375 -8.234375 C 8.914062 -8.160156 8.78125 -8.0625 8.6875 -7.9375 L 5.484375 0 L 3.5625 0 Z M 0.875 -7.59375 "/></g></g></g><g fill="#5e3d0d" fill-opacity="1"><g transform="translate(158.319722, 16.811572)"><g><path d="M 4.8125 0.125 C 3.375 0.125 2.289062 -0.28125 1.5625 -1.09375 C 0.832031 -1.90625 0.46875 -3.019531 0.46875 -4.4375 C 0.46875 -5.925781 0.851562 -7.085938 1.625 -7.921875 C 2.394531 -8.765625 3.507812 -9.1875 4.96875 -9.1875 C 6.363281 -9.1875 7.351562 -8.863281 7.9375 -8.21875 C 8.519531 -7.570312 8.847656 -6.609375 8.921875 -5.328125 L 8.40625 -4.53125 L 3.140625 -4.53125 L 3.140625 -4.234375 C 3.140625 -3.191406 3.285156 -2.414062 3.578125 -1.90625 C 3.878906 -1.40625 4.441406 -1.15625 5.265625 -1.15625 C 5.734375 -1.15625 6.195312 -1.238281 6.65625 -1.40625 C 7.113281 -1.570312 7.507812 -1.832031 7.84375 -2.1875 L 8.59375 -1.453125 C 8.082031 -0.941406 7.546875 -0.550781 6.984375 -0.28125 C 6.429688 -0.0078125 5.707031 0.125 4.8125 0.125 Z M 6.28125 -5.4375 C 6.28125 -6.425781 6.175781 -7.144531 5.96875 -7.59375 C 5.769531 -8.039062 5.410156 -8.265625 4.890625 -8.265625 C 3.753906 -8.265625 3.171875 -7.269531 3.140625 -5.28125 Z M 6.28125 -5.4375 "/></g></g></g><g fill="#5e3d0d" fill-opacity="1"><g transform="translate(167.898423, 16.811572)"><g><path d="M 0.6875 -0.765625 C 0.925781 -0.816406 1.109375 -0.875 1.234375 -0.9375 C 1.367188 -1 1.519531 -1.097656 1.6875 -1.234375 L 1.6875 -6.609375 C 1.6875 -7.054688 1.597656 -7.363281 1.421875 -7.53125 C 1.242188 -7.695312 0.9375 -7.796875 0.5 -7.828125 L 0.5625 -8.546875 L 1.171875 -8.65625 C 2.492188 -8.882812 3.351562 -9.0625 3.75 -9.1875 L 4.09375 -9.015625 L 4.234375 -7.78125 C 4.523438 -8.207031 4.875 -8.546875 5.28125 -8.796875 C 5.695312 -9.046875 6.148438 -9.171875 6.640625 -9.171875 C 7.128906 -9.171875 7.550781 -9.003906 7.90625 -8.671875 C 8.257812 -8.335938 8.4375 -7.929688 8.4375 -7.453125 C 8.4375 -7.003906 8.304688 -6.648438 8.046875 -6.390625 C 7.796875 -6.140625 7.503906 -6.015625 7.171875 -6.015625 C 6.785156 -6.015625 6.476562 -6.171875 6.25 -6.484375 C 6.425781 -6.691406 6.515625 -6.894531 6.515625 -7.09375 C 6.515625 -7.289062 6.429688 -7.453125 6.265625 -7.578125 C 6.097656 -7.703125 5.90625 -7.765625 5.6875 -7.765625 C 5.425781 -7.765625 5.164062 -7.65625 4.90625 -7.4375 C 4.65625 -7.21875 4.457031 -6.9375 4.3125 -6.59375 L 4.3125 -1.234375 C 4.601562 -1.003906 4.976562 -0.835938 5.4375 -0.734375 L 5.359375 0 L 0.640625 0 Z M 0.6875 -0.765625 "/></g></g></g><g fill="#5e3d0d" fill-opacity="1"><g transform="translate(176.37548, 16.811572)"><g><path d="M 2.109375 4.109375 C 1.472656 4.109375 0.976562 3.984375 0.625 3.734375 C 0.28125 3.484375 0.109375 3.128906 0.109375 2.671875 C 0.109375 2.296875 0.207031 1.992188 0.40625 1.765625 C 0.601562 1.546875 0.863281 1.4375 1.1875 1.4375 C 1.550781 1.4375 1.863281 1.585938 2.125 1.890625 C 1.988281 1.992188 1.921875 2.179688 1.921875 2.453125 C 1.921875 2.617188 1.960938 2.753906 2.046875 2.859375 C 2.140625 2.972656 2.265625 3.03125 2.421875 3.03125 C 2.640625 3.03125 2.835938 2.910156 3.015625 2.671875 C 3.191406 2.429688 3.398438 2.015625 3.640625 1.421875 L 4.203125 0 L 3.5625 0 L 0.875 -7.59375 C 0.726562 -8.007812 0.34375 -8.273438 -0.28125 -8.390625 L -0.25 -9.03125 L 4.65625 -9.03125 L 4.5625 -8.390625 C 4.09375 -8.367188 3.734375 -8.25 3.484375 -8.03125 L 5.34375 -2.8125 L 7.390625 -7.96875 C 7.109375 -8.15625 6.707031 -8.296875 6.1875 -8.390625 L 6.25 -9.03125 L 9.734375 -9.03125 L 9.65625 -8.390625 C 9.425781 -8.367188 9.21875 -8.320312 9.03125 -8.25 C 8.84375 -8.175781 8.726562 -8.070312 8.6875 -7.9375 L 4.703125 1.921875 C 4.378906 2.703125 4.019531 3.257812 3.625 3.59375 C 3.226562 3.9375 2.722656 4.109375 2.109375 4.109375 Z M 2.109375 4.109375 "/></g></g></g><g fill="#5e3d0d" fill-opacity="1"><g transform="translate(186.103551, 16.811572)"><g><path d="M 4.953125 0.125 C 3.460938 0.125 2.34375 -0.265625 1.59375 -1.046875 C 0.84375 -1.828125 0.46875 -2.976562 0.46875 -4.5 C 0.46875 -6.03125 0.84375 -7.191406 1.59375 -7.984375 C 2.34375 -8.785156 3.460938 -9.1875 4.953125 -9.1875 C 6.429688 -9.1875 7.546875 -8.785156 8.296875 -7.984375 C 9.046875 -7.191406 9.421875 -6.035156 9.421875 -4.515625 C 9.421875 -2.992188 9.046875 -1.835938 8.296875 -1.046875 C 7.546875 -0.265625 6.429688 0.125 4.953125 0.125 Z M 4.953125 -0.921875 C 5.554688 -0.921875 5.992188 -1.203125 6.265625 -1.765625 C 6.546875 -2.328125 6.6875 -3.242188 6.6875 -4.515625 C 6.6875 -5.785156 6.546875 -6.707031 6.265625 -7.28125 C 5.992188 -7.851562 5.554688 -8.140625 4.953125 -8.140625 C 4.335938 -8.140625 3.894531 -7.851562 3.625 -7.28125 C 3.351562 -6.707031 3.21875 -5.785156 3.21875 -4.515625 C 3.21875 -3.242188 3.351562 -2.328125 3.625 -1.765625 C 3.894531 -1.203125 4.335938 -0.921875 4.953125 -0.921875 Z M 4.953125 -0.921875 "/></g></g></g><g fill="#5e3d0d" fill-opacity="1"><g transform="translate(195.999668, 16.811572)"><g><path d="M 0.6875 -0.765625 C 0.925781 -0.816406 1.109375 -0.875 1.234375 -0.9375 C 1.367188 -1 1.519531 -1.097656 1.6875 -1.234375 L 1.6875 -6.609375 C 1.6875 -7.054688 1.597656 -7.363281 1.421875 -7.53125 C 1.242188 -7.695312 0.9375 -7.796875 0.5 -7.828125 L 0.5625 -8.546875 L 1.171875 -8.65625 C 2.492188 -8.882812 3.351562 -9.0625 3.75 -9.1875 L 4.09375 -9.015625 L 4.234375 -7.9375 C 4.578125 -8.332031 4.976562 -8.640625 5.4375 -8.859375 C 5.90625 -9.078125 6.421875 -9.1875 6.984375 -9.1875 C 7.828125 -9.1875 8.5 -8.929688 9 -8.421875 C 9.507812 -7.910156 9.765625 -7.207031 9.765625 -6.3125 L 9.765625 -1.234375 C 10.078125 -0.992188 10.472656 -0.828125 10.953125 -0.734375 L 10.890625 0 L 6.15625 0 L 6.21875 -0.734375 C 6.59375 -0.804688 6.894531 -0.972656 7.125 -1.234375 L 7.125 -6.140625 C 7.125 -6.753906 7.023438 -7.207031 6.828125 -7.5 C 6.640625 -7.789062 6.351562 -7.9375 5.96875 -7.9375 C 5.644531 -7.9375 5.332031 -7.84375 5.03125 -7.65625 C 4.726562 -7.46875 4.488281 -7.21875 4.3125 -6.90625 L 4.3125 -1.234375 C 4.601562 -1.003906 4.976562 -0.835938 5.4375 -0.734375 L 5.359375 0 L 0.640625 0 Z M 0.6875 -0.765625 "/></g></g></g><g fill="#5e3d0d" fill-opacity="1"><g transform="translate(207.277507, 16.811572)"><g><path d="M 4.8125 0.125 C 3.375 0.125 2.289062 -0.28125 1.5625 -1.09375 C 0.832031 -1.90625 0.46875 -3.019531 0.46875 -4.4375 C 0.46875 -5.925781 0.851562 -7.085938 1.625 -7.921875 C 2.394531 -8.765625 3.507812 -9.1875 4.96875 -9.1875 C 6.363281 -9.1875 7.351562 -8.863281 7.9375 -8.21875 C 8.519531 -7.570312 8.847656 -6.609375 8.921875 -5.328125 L 8.40625 -4.53125 L 3.140625 -4.53125 L 3.140625 -4.234375 C 3.140625 -3.191406 3.285156 -2.414062 3.578125 -1.90625 C 3.878906 -1.40625 4.441406 -1.15625 5.265625 -1.15625 C 5.734375 -1.15625 6.195312 -1.238281 6.65625 -1.40625 C 7.113281 -1.570312 7.507812 -1.832031 7.84375 -2.1875 L 8.59375 -1.453125 C 8.082031 -0.941406 7.546875 -0.550781 6.984375 -0.28125 C 6.429688 -0.0078125 5.707031 0.125 4.8125 0.125 Z M 6.28125 -5.4375 C 6.28125 -6.425781 6.175781 -7.144531 5.96875 -7.59375 C 5.769531 -8.039062 5.410156 -8.265625 4.890625 -8.265625 C 3.753906 -8.265625 3.171875 -7.269531 3.140625 -5.28125 Z M 6.28125 -5.4375 "/></g></g></g><g fill="#5e3d0d" fill-opacity="1"><g transform="translate(216.85622, 16.811572)"><g/></g></g><g fill="#5e3d0d" fill-opacity="1"><g transform="translate(220.964028, 16.811572)"><g><path d="M 1.3125 -4.1875 C 0.875 -4.1875 0.546875 -4.3125 0.328125 -4.5625 C 0.109375 -4.820312 0 -5.171875 0 -5.609375 C 0 -6.066406 0.109375 -6.421875 0.328125 -6.671875 C 0.546875 -6.921875 0.875 -7.046875 1.3125 -7.046875 C 1.738281 -7.046875 2.0625 -6.914062 2.28125 -6.65625 C 2.5 -6.40625 2.609375 -6.054688 2.609375 -5.609375 C 2.609375 -5.148438 2.5 -4.796875 2.28125 -4.546875 C 2.0625 -4.304688 1.738281 -4.1875 1.3125 -4.1875 Z M 1.3125 -4.1875 "/></g></g></g></g></g></svg>